<svg xmlns="http://www.w3.org/2000/svg" xmlns:xlink="http://www.w3.org/1999/xlink" width="80" zoomAndPan="magnify" viewBox="0 0 52.5 52.499999" height="35" preserveAspectRatio="xMidYMid meet" version="1.0"><path fill="#039834" d="M 45.542969 25.070312 C 43.628906 23.410156 38.886719 22.910156 34.574219 22.808594 C 38.671875 22.207031 42.976562 21.1875 44.609375 19.40625 C 46.820312 16.996094 46.65625 13.25 44.246094 11.042969 C 42.617188 9.550781 40.386719 9.144531 38.425781 9.769531 C 38.882812 7.765625 38.28125 5.578125 36.65625 4.089844 C 34.242188 1.878906 30.492188 2.042969 28.28125 4.453125 C 26.546875 6.34375 25.9375 11.121094 25.738281 15.445312 C 25.535156 11.121094 24.925781 6.34375 23.191406 4.453125 C 20.980469 2.042969 17.230469 1.878906 14.820312 4.089844 C 13.195312 5.578125 12.589844 7.765625 13.046875 9.769531 C 11.085938 9.144531 8.855469 9.550781 7.230469 11.042969 C 4.816406 13.25 4.652344 16.996094 6.863281 19.40625 C 8.507812 21.199219 12.863281 22.222656 16.984375 22.824219 C 12.808594 22.949219 8.34375 23.472656 6.5 25.070312 C 4.03125 27.214844 3.765625 30.957031 5.914062 33.421875 C 7.359375 35.085938 9.53125 35.746094 11.546875 35.34375 C 10.867188 37.285156 11.21875 39.527344 12.664062 41.191406 C 14.8125 43.660156 18.554688 43.921875 21.023438 41.777344 C 22.917969 40.132812 24.054688 35.636719 24.75 31.445312 C 24.664062 33.449219 24.703125 35.476562 24.945312 37.507812 C 25.203125 39.648438 25.695312 41.792969 26.53125 43.847656 C 27.367188 45.902344 28.566406 47.847656 30.097656 49.507812 L 30.109375 49.519531 C 30.121094 49.535156 30.136719 49.550781 30.148438 49.566406 C 30.761719 50.171875 32.960938 47.960938 32.347656 47.355469 C 31.019531 46.035156 29.945312 44.460938 29.148438 42.722656 C 28.347656 40.984375 27.820312 39.09375 27.5 37.148438 C 27.175781 35.199219 27.058594 33.199219 27.074219 31.183594 C 27.074219 30.847656 27.082031 30.507812 27.09375 30.167969 C 27.761719 34.679688 28.933594 39.964844 31.019531 41.777344 C 33.488281 43.921875 37.234375 43.660156 39.378906 41.191406 C 40.824219 39.527344 41.175781 37.285156 40.496094 35.34375 C 42.515625 35.746094 44.683594 35.085938 46.132812 33.421875 C 48.277344 30.957031 48.015625 27.214844 45.542969 25.070312 Z M 45.542969 25.070312 " fill-opacity="1" fill-rule="nonzero"/></svg>