<svg width="210" height="60" viewBox="0 0 194 114" fill="none" xmlns="http://www.w3.org/2000/svg">
<rect x="0.5" y="0.5" width="52.9215" height="23.5538" rx="11.7769" fill="#186F65" stroke="#186F65"/>
<rect x="57.4385" width="136.562" height="24.5538" rx="12.2769" fill="#96FEEB"/>
<rect x="0.5" y="30.3154" width="52.9215" height="23.5538" rx="11.7769" fill="#186F65" stroke="#186F65"/>
<rect x="57.4385" y="29.8154" width="136.562" height="24.5538" rx="12.2769" fill="#96FEEB"/>
<rect x="0.5" y="60.1309" width="52.9215" height="23.5538" rx="11.7769" fill="#186F65" stroke="#186F65"/>
<rect x="57.4385" y="59.6309" width="136.562" height="24.5538" rx="12.2769" fill="#96FEEB"/>
<rect x="0.5" y="89.9463" width="52.9215" height="23.5538" rx="11.7769" fill="#186F65" stroke="#186F65"/>
<rect x="57.4385" y="89.4463" width="136.562" height="24.5538" rx="12.2769" fill="#96FEEB"/>
<path d="M15.88 16V9H17.58V16H15.88ZM16.67 13.32V11.9H20.29V13.32H16.67ZM16.67 10.5V9H20.7V10.5H16.67ZM26.1638 16.1C25.6304 16.1 25.1438 16.01 24.7038 15.83C24.2638 15.65 23.8804 15.3967 23.5538 15.07C23.2271 14.7433 22.9738 14.36 22.7938 13.92C22.6138 13.48 22.5238 12.9967 22.5238 12.47C22.5238 11.9433 22.6138 11.46 22.7938 11.02C22.9738 10.58 23.2271 10.1967 23.5538 9.87C23.8804 9.54333 24.2638 9.29 24.7038 9.11C25.1438 8.93 25.6271 8.84 26.1538 8.84C26.6804 8.84 27.1638 8.93 27.6037 9.11C28.0438 9.29 28.4271 9.54333 28.7538 9.87C29.0804 10.1967 29.3304 10.58 29.5038 11.02C29.6838 11.46 29.7738 11.9433 29.7738 12.47C29.7738 12.99 29.6838 13.4733 29.5038 13.92C29.3304 14.36 29.0804 14.7433 28.7538 15.07C28.4271 15.3967 28.0438 15.65 27.6037 15.83C27.1638 16.01 26.6838 16.1 26.1638 16.1ZM26.1538 14.5C26.4271 14.5 26.6771 14.45 26.9038 14.35C27.1371 14.25 27.3371 14.11 27.5038 13.93C27.6771 13.7433 27.8104 13.5267 27.9038 13.28C27.9971 13.0333 28.0438 12.7633 28.0438 12.47C28.0438 12.1767 27.9971 11.9067 27.9038 11.66C27.8104 11.4133 27.6771 11.2 27.5038 11.02C27.3371 10.8333 27.1371 10.69 26.9038 10.59C26.6771 10.49 26.4271 10.44 26.1538 10.44C25.8804 10.44 25.6271 10.49 25.3938 10.59C25.1671 10.69 24.9671 10.8333 24.7938 11.02C24.6204 11.2 24.4871 11.4133 24.3938 11.66C24.3071 11.9067 24.2638 12.1767 24.2638 12.47C24.2638 12.7633 24.3071 13.0367 24.3938 13.29C24.4871 13.5367 24.6204 13.75 24.7938 13.93C24.9671 14.11 25.1671 14.25 25.3938 14.35C25.6271 14.45 25.8804 14.5 26.1538 14.5ZM32.089 16V9H35.239C35.6857 9 36.089 9.09667 36.449 9.29C36.8157 9.48333 37.1023 9.75 37.309 10.09C37.5157 10.4233 37.619 10.8033 37.619 11.23C37.619 11.67 37.5157 12.0667 37.309 12.42C37.1023 12.7667 36.819 13.04 36.459 13.24C36.099 13.44 35.6923 13.54 35.239 13.54H33.709V16H32.089ZM35.969 16L34.189 12.84L35.929 12.59L37.909 16H35.969ZM33.709 12.24H35.089C35.2623 12.24 35.4123 12.2033 35.539 12.13C35.6723 12.05 35.7723 11.94 35.839 11.8C35.9123 11.66 35.949 11.5 35.949 11.32C35.949 11.14 35.909 10.9833 35.829 10.85C35.749 10.71 35.6323 10.6033 35.479 10.53C35.3323 10.4567 35.1523 10.42 34.939 10.42H33.709V12.24Z" fill="white"/>
<path d="M17.14 45L15.04 38H16.77L17.82 41.68C17.8667 41.8467 17.9067 42.0167 17.94 42.19C17.98 42.3567 18.01 42.5167 18.03 42.67C18.0567 42.8233 18.0767 42.9667 18.09 43.1C18.1033 43.2267 18.1167 43.3333 18.13 43.42H17.91C17.95 43.1733 17.9833 42.9533 18.01 42.76C18.0433 42.5667 18.08 42.3867 18.12 42.22C18.16 42.0467 18.21 41.8667 18.27 41.68L19.31 38.91H20.67L21.69 41.68C21.77 41.9 21.8367 42.1067 21.89 42.3C21.9433 42.4933 21.9833 42.68 22.01 42.86C22.0433 43.0333 22.07 43.2067 22.09 43.38L21.89 43.41C21.9033 43.29 21.9133 43.18 21.92 43.08C21.9267 42.9733 21.9333 42.8733 21.94 42.78C21.9533 42.68 21.9667 42.5767 21.98 42.47C21.9933 42.3633 22.0133 42.2467 22.04 42.12C22.0667 41.9867 22.1033 41.8367 22.15 41.67L23.19 38H24.88L22.78 45H21.48L19.82 40.97L20.01 40.99L18.48 45H17.14ZM31.1516 45V38H32.8516V45H31.1516ZM26.8116 45V38H28.5116V45H26.8116ZM27.4716 42.27L27.4816 40.75H32.0516V42.27H27.4716ZM38.7946 45.1C38.2613 45.1 37.7746 45.01 37.3346 44.83C36.8946 44.65 36.5113 44.3967 36.1846 44.07C35.8579 43.7433 35.6046 43.36 35.4246 42.92C35.2446 42.48 35.1546 41.9967 35.1546 41.47C35.1546 40.9433 35.2446 40.46 35.4246 40.02C35.6046 39.58 35.8579 39.1967 36.1846 38.87C36.5113 38.5433 36.8946 38.29 37.3346 38.11C37.7746 37.93 38.2579 37.84 38.7846 37.84C39.3113 37.84 39.7946 37.93 40.2346 38.11C40.6746 38.29 41.0579 38.5433 41.3846 38.87C41.7113 39.1967 41.9613 39.58 42.1346 40.02C42.3146 40.46 42.4046 40.9433 42.4046 41.47C42.4046 41.99 42.3146 42.4733 42.1346 42.92C41.9613 43.36 41.7113 43.7433 41.3846 44.07C41.0579 44.3967 40.6746 44.65 40.2346 44.83C39.7946 45.01 39.3146 45.1 38.7946 45.1ZM38.7846 43.5C39.0579 43.5 39.3079 43.45 39.5346 43.35C39.7679 43.25 39.9679 43.11 40.1346 42.93C40.3079 42.7433 40.4413 42.5267 40.5346 42.28C40.6279 42.0333 40.6746 41.7633 40.6746 41.47C40.6746 41.1767 40.6279 40.9067 40.5346 40.66C40.4413 40.4133 40.3079 40.2 40.1346 40.02C39.9679 39.8333 39.7679 39.69 39.5346 39.59C39.3079 39.49 39.0579 39.44 38.7846 39.44C38.5113 39.44 38.2579 39.49 38.0246 39.59C37.7979 39.69 37.5979 39.8333 37.4246 40.02C37.2513 40.2 37.1179 40.4133 37.0246 40.66C36.9379 40.9067 36.8946 41.1767 36.8946 41.47C36.8946 41.7633 36.9379 42.0367 37.0246 42.29C37.1179 42.5367 37.2513 42.75 37.4246 42.93C37.5979 43.11 37.7979 43.25 38.0246 43.35C38.2579 43.45 38.5113 43.5 38.7846 43.5Z" fill="white"/>
<path d="M17.14 75L15.04 68H16.77L17.82 71.68C17.8667 71.8467 17.9067 72.0167 17.94 72.19C17.98 72.3567 18.01 72.5167 18.03 72.67C18.0567 72.8233 18.0767 72.9667 18.09 73.1C18.1033 73.2267 18.1167 73.3333 18.13 73.42H17.91C17.95 73.1733 17.9833 72.9533 18.01 72.76C18.0433 72.5667 18.08 72.3867 18.12 72.22C18.16 72.0467 18.21 71.8667 18.27 71.68L19.31 68.91H20.67L21.69 71.68C21.77 71.9 21.8367 72.1067 21.89 72.3C21.9433 72.4933 21.9833 72.68 22.01 72.86C22.0433 73.0333 22.07 73.2067 22.09 73.38L21.89 73.41C21.9033 73.29 21.9133 73.18 21.92 73.08C21.9267 72.9733 21.9333 72.8733 21.94 72.78C21.9533 72.68 21.9667 72.5767 21.98 72.47C21.9933 72.3633 22.0133 72.2467 22.04 72.12C22.0667 71.9867 22.1033 71.8367 22.15 71.67L23.19 68H24.88L22.78 75H21.48L19.82 70.97L20.01 70.99L18.48 75H17.14ZM26.8116 75V68H31.6916V69.45H28.4616V73.55H31.7916V75H26.8116ZM27.6116 72.13V70.75H31.2416V72.13H27.6116Z" fill="white"/>
<path d="M14.4 104V98.5H12.32V97H18.23V98.5H16.1V104H14.4ZM24.7727 104V97H26.4727V104H24.7727ZM20.4327 104V97H22.1327V104H20.4327ZM21.0927 101.27L21.1027 99.75H25.6727V101.27H21.0927ZM28.3357 104L31.1057 97H32.5457L35.2957 104H33.5757L32.2557 100.45C32.2024 100.31 32.149 100.16 32.0957 100C32.0424 99.84 31.989 99.6767 31.9357 99.51C31.8824 99.3367 31.829 99.17 31.7757 99.01C31.729 98.8433 31.689 98.69 31.6557 98.55L31.9557 98.54C31.9157 98.7067 31.869 98.87 31.8157 99.03C31.769 99.19 31.719 99.35 31.6657 99.51C31.619 99.6633 31.5657 99.82 31.5057 99.98C31.4457 100.133 31.389 100.293 31.3357 100.46L30.0157 104H28.3357ZM29.6557 102.66L30.1857 101.38H33.4057L33.9257 102.66H29.6557ZM38.191 104V98.5H36.111V97H42.021V98.5H39.891V104H38.191Z" fill="white"/>
</svg>
