
<svg width="350" height="70" viewBox="0 0 285 82" fill="none" xmlns="http://www.w3.org/2000/svg">
<mask id="path-1-outside-1_640_178" maskUnits="userSpaceOnUse" x="-3" y="-3" width="291" height="88" fill="black">
<rect fill="white" x="-3" y="-3" width="291" height="88"/>
<path d="M69.035 38.265C70.367 38.265 71.625 38.894 72.809 40.152C73.993 41.336 74.585 43.149 74.585 45.591C74.585 48.033 73.993 49.846 72.809 51.03C71.625 52.214 70.33 52.806 68.924 52.806H68.036L68.591 73.563C68.665 75.931 67.962 77.818 66.482 79.224C65.076 80.556 63.115 81.222 60.599 81.222C58.157 81.222 56.196 80.593 54.716 79.335C53.236 78.003 52.459 76.227 52.385 74.007L51.719 52.584L23.414 52.14L21.527 76.005C21.231 79.853 18.567 81.777 13.535 81.777C10.723 81.777 8.614 81.222 7.208 80.112C5.802 78.928 5.173 77.189 5.321 74.895L7.097 51.918H6.431C4.655 51.918 3.249 51.289 2.213 50.031C1.251 48.699 0.77 46.886 0.77 44.592C0.77 42.298 1.325 40.559 2.435 39.375C3.545 38.117 5.025 37.488 6.875 37.488H8.318L10.649 7.51799C10.797 5.52 11.648 3.892 13.202 2.634C14.756 1.376 16.754 0.746994 19.196 0.746994C21.786 0.746994 23.747 1.487 25.079 2.967C26.411 4.447 27.003 6.371 26.855 8.739L24.524 37.71L51.275 38.043L50.387 8.295C50.313 6.07499 50.979 4.26199 52.385 2.85599C53.865 1.44999 55.9 0.746994 58.49 0.746994C60.932 0.746994 62.893 1.44999 64.373 2.85599C65.853 4.18799 66.63 5.85299 66.704 7.851L67.592 38.265H69.035ZM175.005 43.815C175.005 47.589 175.079 52.658 175.227 59.022C175.375 65.386 175.449 70.344 175.449 73.896C175.449 76.412 174.746 78.373 173.34 79.779C171.934 81.111 169.973 81.777 167.457 81.777C164.941 81.777 162.943 81.111 161.463 79.779C159.983 78.447 159.243 76.671 159.243 74.451V44.481C159.243 37.229 159.021 31.605 158.577 27.609C158.133 23.539 157.578 21.504 156.912 21.504C156.32 21.504 155.432 23.058 154.248 26.166C153.064 29.274 152.028 32.345 151.14 35.379C149.882 39.523 148.587 44.333 147.255 49.809C146.737 51.807 145.738 53.287 144.258 54.249C142.778 55.211 140.817 55.692 138.375 55.692C133.417 55.692 130.42 53.879 129.384 50.253L128.052 45.48C127.016 41.706 125.943 38.191 124.833 34.935C123.945 32.345 122.835 29.459 121.503 26.277C120.171 23.095 119.32 21.504 118.95 21.504C118.506 21.504 118.173 23.576 117.951 27.72C117.729 31.79 117.544 37.229 117.396 44.037C117.322 46.701 117.285 50.253 117.285 54.693L117.396 74.673C117.396 76.671 116.656 78.299 115.176 79.557C113.696 80.741 111.661 81.333 109.071 81.333C106.555 81.333 104.594 80.667 103.188 79.335C101.856 78.003 101.19 75.709 101.19 72.453L101.301 58.467C101.449 52.251 101.523 47.33 101.523 43.704C101.523 33.64 102.041 25.574 103.077 19.506C104.113 13.364 105.741 8.887 107.961 6.075C110.181 3.263 113.104 1.85699 116.73 1.85699C121.096 1.85699 124.685 3.596 127.497 7.074C130.383 10.552 132.529 14.474 133.935 18.84C135.415 23.206 136.821 28.386 138.153 34.38C139.559 28.608 141.076 23.502 142.704 19.062C144.332 14.548 146.589 10.552 149.475 7.074C152.435 3.596 156.024 1.85699 160.242 1.85699C164.09 1.85699 167.087 3.48499 169.233 6.741C171.379 9.923 172.859 14.548 173.673 20.616C174.561 26.61 175.005 34.343 175.005 43.815ZM225.354 81C222.838 81 220.618 80.408 218.694 79.224C216.77 77.966 215.586 76.412 215.142 74.562C214.994 74.118 214.328 71.158 213.144 65.682C211.294 56.432 209.111 47.7 206.595 39.486C204.893 33.788 203.487 28.756 202.377 24.39L199.047 12.402C198.825 11.588 198.714 10.848 198.714 10.182C198.714 7.888 199.602 6.075 201.378 4.743C203.154 3.337 205.374 2.634 208.038 2.634C209.814 2.634 211.257 3.041 212.367 3.85499C213.551 4.59499 214.365 5.88999 214.809 7.74C215.327 9.95999 215.808 11.921 216.252 13.623C216.77 15.251 217.177 16.694 217.473 17.952C219.323 24.242 220.84 30.199 222.024 35.823C222.394 37.451 223.06 40.818 224.022 45.924C224.688 49.106 225.317 52.029 225.909 54.693C226.501 57.357 226.908 58.689 227.13 58.689C227.352 58.689 227.722 57.986 228.24 56.58C228.832 55.174 229.313 53.879 229.683 52.695C230.127 51.437 230.46 50.475 230.682 49.809C230.978 48.773 231.755 46.479 233.013 42.927C234.049 40.189 234.863 38.154 235.455 36.822C236.121 35.416 236.972 34.195 238.008 33.159C239.044 32.123 240.302 31.605 241.782 31.605C243.854 31.605 245.556 32.53 246.888 34.38C248.22 36.23 249.589 39.153 250.995 43.149C254.621 53.361 256.804 58.467 257.544 58.467C257.988 58.467 258.839 54.471 260.097 46.479C260.393 44.999 260.689 43.408 260.985 41.706C261.281 39.93 261.614 38.043 261.984 36.045C263.908 26.129 265.906 16.731 267.978 7.851C268.792 4.447 271.271 2.745 275.415 2.745C278.005 2.745 280.151 3.411 281.853 4.743C283.555 6.075 284.406 7.777 284.406 9.849C284.406 10.441 284.295 11.144 284.073 11.958C282.445 18.1 280.743 25.056 278.967 32.826L277.413 39.375C276.229 44.333 275.008 49.846 273.75 55.914C272.566 61.982 271.789 65.867 271.419 67.569L270.198 73.896C269.754 76.116 268.681 77.818 266.979 79.002C265.277 80.186 263.094 80.778 260.43 80.778C257.766 80.778 255.509 80.149 253.659 78.891C251.883 77.633 250.255 75.635 248.775 72.897C248.553 72.527 247.48 70.307 245.556 66.237C243.558 61.797 242.411 59.577 242.115 59.577C241.819 59.577 241.079 61.316 239.895 64.794C238.341 68.938 237.268 71.602 236.676 72.786C234.012 78.262 230.238 81 225.354 81Z"/>
</mask>
<path d="M69.035 38.265C70.367 38.265 71.625 38.894 72.809 40.152C73.993 41.336 74.585 43.149 74.585 45.591C74.585 48.033 73.993 49.846 72.809 51.03C71.625 52.214 70.33 52.806 68.924 52.806H68.036L68.591 73.563C68.665 75.931 67.962 77.818 66.482 79.224C65.076 80.556 63.115 81.222 60.599 81.222C58.157 81.222 56.196 80.593 54.716 79.335C53.236 78.003 52.459 76.227 52.385 74.007L51.719 52.584L23.414 52.14L21.527 76.005C21.231 79.853 18.567 81.777 13.535 81.777C10.723 81.777 8.614 81.222 7.208 80.112C5.802 78.928 5.173 77.189 5.321 74.895L7.097 51.918H6.431C4.655 51.918 3.249 51.289 2.213 50.031C1.251 48.699 0.77 46.886 0.77 44.592C0.77 42.298 1.325 40.559 2.435 39.375C3.545 38.117 5.025 37.488 6.875 37.488H8.318L10.649 7.51799C10.797 5.52 11.648 3.892 13.202 2.634C14.756 1.376 16.754 0.746994 19.196 0.746994C21.786 0.746994 23.747 1.487 25.079 2.967C26.411 4.447 27.003 6.371 26.855 8.739L24.524 37.71L51.275 38.043L50.387 8.295C50.313 6.07499 50.979 4.26199 52.385 2.85599C53.865 1.44999 55.9 0.746994 58.49 0.746994C60.932 0.746994 62.893 1.44999 64.373 2.85599C65.853 4.18799 66.63 5.85299 66.704 7.851L67.592 38.265H69.035ZM175.005 43.815C175.005 47.589 175.079 52.658 175.227 59.022C175.375 65.386 175.449 70.344 175.449 73.896C175.449 76.412 174.746 78.373 173.34 79.779C171.934 81.111 169.973 81.777 167.457 81.777C164.941 81.777 162.943 81.111 161.463 79.779C159.983 78.447 159.243 76.671 159.243 74.451V44.481C159.243 37.229 159.021 31.605 158.577 27.609C158.133 23.539 157.578 21.504 156.912 21.504C156.32 21.504 155.432 23.058 154.248 26.166C153.064 29.274 152.028 32.345 151.14 35.379C149.882 39.523 148.587 44.333 147.255 49.809C146.737 51.807 145.738 53.287 144.258 54.249C142.778 55.211 140.817 55.692 138.375 55.692C133.417 55.692 130.42 53.879 129.384 50.253L128.052 45.48C127.016 41.706 125.943 38.191 124.833 34.935C123.945 32.345 122.835 29.459 121.503 26.277C120.171 23.095 119.32 21.504 118.95 21.504C118.506 21.504 118.173 23.576 117.951 27.72C117.729 31.79 117.544 37.229 117.396 44.037C117.322 46.701 117.285 50.253 117.285 54.693L117.396 74.673C117.396 76.671 116.656 78.299 115.176 79.557C113.696 80.741 111.661 81.333 109.071 81.333C106.555 81.333 104.594 80.667 103.188 79.335C101.856 78.003 101.19 75.709 101.19 72.453L101.301 58.467C101.449 52.251 101.523 47.33 101.523 43.704C101.523 33.64 102.041 25.574 103.077 19.506C104.113 13.364 105.741 8.887 107.961 6.075C110.181 3.263 113.104 1.85699 116.73 1.85699C121.096 1.85699 124.685 3.596 127.497 7.074C130.383 10.552 132.529 14.474 133.935 18.84C135.415 23.206 136.821 28.386 138.153 34.38C139.559 28.608 141.076 23.502 142.704 19.062C144.332 14.548 146.589 10.552 149.475 7.074C152.435 3.596 156.024 1.85699 160.242 1.85699C164.09 1.85699 167.087 3.48499 169.233 6.741C171.379 9.923 172.859 14.548 173.673 20.616C174.561 26.61 175.005 34.343 175.005 43.815ZM225.354 81C222.838 81 220.618 80.408 218.694 79.224C216.77 77.966 215.586 76.412 215.142 74.562C214.994 74.118 214.328 71.158 213.144 65.682C211.294 56.432 209.111 47.7 206.595 39.486C204.893 33.788 203.487 28.756 202.377 24.39L199.047 12.402C198.825 11.588 198.714 10.848 198.714 10.182C198.714 7.888 199.602 6.075 201.378 4.743C203.154 3.337 205.374 2.634 208.038 2.634C209.814 2.634 211.257 3.041 212.367 3.85499C213.551 4.59499 214.365 5.88999 214.809 7.74C215.327 9.95999 215.808 11.921 216.252 13.623C216.77 15.251 217.177 16.694 217.473 17.952C219.323 24.242 220.84 30.199 222.024 35.823C222.394 37.451 223.06 40.818 224.022 45.924C224.688 49.106 225.317 52.029 225.909 54.693C226.501 57.357 226.908 58.689 227.13 58.689C227.352 58.689 227.722 57.986 228.24 56.58C228.832 55.174 229.313 53.879 229.683 52.695C230.127 51.437 230.46 50.475 230.682 49.809C230.978 48.773 231.755 46.479 233.013 42.927C234.049 40.189 234.863 38.154 235.455 36.822C236.121 35.416 236.972 34.195 238.008 33.159C239.044 32.123 240.302 31.605 241.782 31.605C243.854 31.605 245.556 32.53 246.888 34.38C248.22 36.23 249.589 39.153 250.995 43.149C254.621 53.361 256.804 58.467 257.544 58.467C257.988 58.467 258.839 54.471 260.097 46.479C260.393 44.999 260.689 43.408 260.985 41.706C261.281 39.93 261.614 38.043 261.984 36.045C263.908 26.129 265.906 16.731 267.978 7.851C268.792 4.447 271.271 2.745 275.415 2.745C278.005 2.745 280.151 3.411 281.853 4.743C283.555 6.075 284.406 7.777 284.406 9.849C284.406 10.441 284.295 11.144 284.073 11.958C282.445 18.1 280.743 25.056 278.967 32.826L277.413 39.375C276.229 44.333 275.008 49.846 273.75 55.914C272.566 61.982 271.789 65.867 271.419 67.569L270.198 73.896C269.754 76.116 268.681 77.818 266.979 79.002C265.277 80.186 263.094 80.778 260.43 80.778C257.766 80.778 255.509 80.149 253.659 78.891C251.883 77.633 250.255 75.635 248.775 72.897C248.553 72.527 247.48 70.307 245.556 66.237C243.558 61.797 242.411 59.577 242.115 59.577C241.819 59.577 241.079 61.316 239.895 64.794C238.341 68.938 237.268 71.602 236.676 72.786C234.012 78.262 230.238 81 225.354 81Z" fill="#186F65"/>
<path d="M72.809 40.152L70.6244 42.2081L70.6555 42.2412L70.6877 42.2733L72.809 40.152ZM72.809 51.03L74.9303 53.1513L74.9303 53.1513L72.809 51.03ZM68.036 52.806V49.806H64.9547L65.0371 52.8862L68.036 52.806ZM68.591 73.563L65.592 73.6432L65.5925 73.6567L68.591 73.563ZM66.482 79.224L68.5452 81.4019L68.5483 81.399L66.482 79.224ZM54.716 79.335L52.7091 81.5649L52.7407 81.5933L52.7731 81.6208L54.716 79.335ZM52.385 74.007L49.3864 74.1002L49.3867 74.1069L52.385 74.007ZM51.719 52.584L54.7176 52.4908L54.6286 49.6293L51.7661 49.5844L51.719 52.584ZM23.414 52.14L23.4611 49.1404L20.6453 49.0962L20.4233 51.9035L23.414 52.14ZM21.527 76.005L18.5363 75.7685L18.5358 75.7749L21.527 76.005ZM7.208 80.112L5.27559 82.4067L5.31186 82.4373L5.34907 82.4666L7.208 80.112ZM5.321 74.895L2.32992 74.6638L2.32845 74.6828L2.32722 74.7019L5.321 74.895ZM7.097 51.918L10.0881 52.1492L10.3378 48.918H7.097V51.918ZM2.213 50.031L-0.219037 51.7875L-0.163304 51.8646L-0.10279 51.9381L2.213 50.031ZM2.435 39.375L4.62361 41.4268L4.65457 41.3938L4.68451 41.3599L2.435 39.375ZM8.318 37.488V40.488H11.0937L11.309 37.7206L8.318 37.488ZM10.649 7.51799L13.64 7.75063L13.6408 7.73961L10.649 7.51799ZM25.079 2.967L22.8491 4.97389L22.8491 4.9739L25.079 2.967ZM26.855 8.739L29.8453 8.9796L29.8475 8.95288L29.8492 8.92613L26.855 8.739ZM24.524 37.71L21.5337 37.4694L21.2762 40.6698L24.4867 40.7098L24.524 37.71ZM51.275 38.043L51.2377 41.0428L54.3671 41.0817L54.2737 37.9535L51.275 38.043ZM50.387 8.295L53.3857 8.20548L53.3853 8.19505L50.387 8.295ZM52.385 2.856L50.3188 0.680996L50.2909 0.707481L50.2637 0.734673L52.385 2.856ZM64.373 2.856L62.3068 5.03099L62.3361 5.05883L62.3661 5.08588L64.373 2.856ZM66.704 7.85099L69.7027 7.76344L69.7024 7.7517L69.702 7.73996L66.704 7.85099ZM67.592 38.265L64.5933 38.3526L64.6783 41.265H67.592V38.265ZM69.035 41.265C69.3125 41.265 69.83 41.3641 70.6244 42.2081L74.9936 38.0959C73.42 36.4239 71.4215 35.265 69.035 35.265V41.265ZM70.6877 42.2733C71.0953 42.6809 71.585 43.5802 71.585 45.591H77.585C77.585 42.7178 76.8907 39.9911 74.9303 38.0307L70.6877 42.2733ZM71.585 45.591C71.585 47.6018 71.0953 48.5011 70.6877 48.9087L74.9303 53.1513C76.8907 51.1909 77.585 48.4642 77.585 45.591H71.585ZM70.6877 48.9087C69.951 49.6453 69.385 49.806 68.924 49.806V55.806C71.275 55.806 73.299 54.7827 74.9303 53.1513L70.6877 48.9087ZM68.924 49.806H68.036V55.806H68.924V49.806ZM65.0371 52.8862L65.5921 73.6432L71.5899 73.4828L71.0349 52.7258L65.0371 52.8862ZM65.5925 73.6567C65.6445 75.3213 65.1741 76.3286 64.4158 77.049L68.5483 81.399C70.7499 79.3074 71.6855 76.5407 71.5895 73.4693L65.5925 73.6567ZM64.4188 77.0461C63.7213 77.7069 62.5848 78.222 60.599 78.222V84.222C63.6452 84.222 66.4307 83.4051 68.5452 81.4019L64.4188 77.0461ZM60.599 78.222C58.6804 78.222 57.4684 77.7372 56.659 77.0492L52.7731 81.6208C54.9236 83.4488 57.6336 84.222 60.599 84.222V78.222ZM56.7229 77.1051C55.9222 76.3845 55.4336 75.4155 55.3833 73.9071L49.3867 74.1069C49.4844 77.0385 50.5498 79.6215 52.7091 81.5649L56.7229 77.1051ZM55.3836 73.9138L54.7176 52.4908L48.7205 52.6772L49.3865 74.1002L55.3836 73.9138ZM51.7661 49.5844L23.4611 49.1404L23.3669 55.1396L51.672 55.5836L51.7661 49.5844ZM20.4233 51.9035L18.5363 75.7685L24.5177 76.2415L26.4047 52.3765L20.4233 51.9035ZM18.5358 75.7749C18.4424 76.9891 18.0396 77.5488 17.5505 77.902C16.9363 78.3455 15.7349 78.777 13.535 78.777V84.777C16.3671 84.777 19.0137 84.2465 21.0635 82.766C23.2384 81.1952 24.3156 78.8689 24.5182 76.2351L18.5358 75.7749ZM13.535 78.777C11.0367 78.777 9.71665 78.2703 9.06693 77.7574L5.34907 82.4666C7.51135 84.1737 10.4093 84.777 13.535 84.777V78.777ZM9.14041 77.8173C8.64493 77.4 8.21102 76.6964 8.31478 75.0882L2.32722 74.7019C2.13498 77.6816 2.95907 80.456 5.27559 82.4067L9.14041 77.8173ZM8.31208 75.1262L10.0881 52.1492L4.10592 51.6868L2.32992 74.6638L8.31208 75.1262ZM7.097 48.918H6.431V54.918H7.097V48.918ZM6.431 48.918C5.45986 48.918 4.93914 48.6222 4.52879 48.1239L-0.10279 51.9381C1.55886 53.9558 3.85014 54.918 6.431 54.918V48.918ZM4.64504 48.2745C4.17281 47.6207 3.77 46.4983 3.77 44.592H-2.23C-2.23 47.2737 -1.67081 49.7773 -0.219037 51.7875L4.64504 48.2745ZM3.77 44.592C3.77 42.7446 4.21674 41.8608 4.62361 41.4268L0.246388 37.3232C-1.56674 39.2572 -2.23 41.8514 -2.23 44.592H3.77ZM4.68451 41.3599C5.16261 40.818 5.78668 40.488 6.875 40.488V34.488C4.26332 34.488 1.92739 35.416 0.185487 37.3901L4.68451 41.3599ZM6.875 40.488H8.318V34.488H6.875V40.488ZM11.309 37.7206L13.64 7.75063L7.65803 7.28536L5.32703 37.2554L11.309 37.7206ZM13.6408 7.73961C13.7278 6.56528 14.1805 5.70163 15.0896 4.96573L11.3144 0.302261C9.11546 2.08237 7.86621 4.47471 7.6572 7.29638L13.6408 7.73961ZM15.0896 4.96573C15.999 4.22955 17.2841 3.74699 19.196 3.74699V-2.25301C16.2239 -2.25301 13.513 -1.47755 11.3144 0.302261L15.0896 4.96573ZM19.196 3.74699C21.2067 3.74699 22.2452 4.30285 22.8491 4.97389L27.3089 0.96011C25.2488 -1.32885 22.3653 -2.25301 19.196 -2.25301V3.74699ZM22.8491 4.9739C23.5402 5.74174 23.9689 6.82236 23.8608 8.55186L29.8492 8.92613C30.0371 5.91964 29.2818 3.15226 27.3089 0.960102L22.8491 4.9739ZM23.8647 8.49839L21.5337 37.4694L27.5143 37.9506L29.8453 8.9796L23.8647 8.49839ZM24.4867 40.7098L51.2377 41.0428L51.3123 35.0432L24.5613 34.7102L24.4867 40.7098ZM54.2737 37.9535L53.3857 8.20548L47.3883 8.38451L48.2763 38.1325L54.2737 37.9535ZM53.3853 8.19505C53.3354 6.69749 53.7594 5.72424 54.5063 4.97731L50.2637 0.734673C48.1986 2.79974 47.2906 5.4525 47.3887 8.39494L53.3853 8.19505ZM54.4513 5.03099C55.2349 4.28652 56.4535 3.74699 58.49 3.74699V-2.25301C55.3465 -2.25301 52.4951 -1.38653 50.3188 0.680996L54.4513 5.03099ZM58.49 3.74699C60.3234 3.74699 61.4907 4.25571 62.3068 5.03099L66.4392 0.680996C64.2953 -1.35572 61.5406 -2.25301 58.49 -2.25301V3.74699ZM62.3661 5.08588C63.2399 5.87225 63.662 6.77152 63.7061 7.96203L69.702 7.73996C69.598 4.93447 68.4661 2.50374 66.3799 0.62611L62.3661 5.08588ZM63.7053 7.93855L64.5933 38.3526L70.5907 38.1774L69.7027 7.76344L63.7053 7.93855ZM67.592 41.265H69.035V35.265H67.592V41.265ZM175.227 59.022L178.227 58.9522L175.227 59.022ZM173.34 79.779L175.404 81.9569L175.433 81.929L175.462 81.9003L173.34 79.779ZM161.463 79.779L163.47 77.5491L161.463 79.779ZM158.577 27.609L155.595 27.9343L155.596 27.9403L158.577 27.609ZM154.248 26.166L157.052 27.234V27.234L154.248 26.166ZM151.14 35.379L154.011 36.2504L154.015 36.2361L154.02 36.2217L151.14 35.379ZM147.255 49.809L150.159 50.5619L150.165 50.54L150.17 50.5181L147.255 49.809ZM144.258 54.249L145.893 56.7643L144.258 54.249ZM129.384 50.253L126.495 51.0594L126.497 51.0683L126.5 51.0772L129.384 50.253ZM128.052 45.48L125.159 46.2742L125.163 46.2864L128.052 45.48ZM124.833 34.935L127.673 33.967L127.671 33.962L124.833 34.935ZM121.503 26.277L124.271 25.1186V25.1186L121.503 26.277ZM117.951 27.72L120.947 27.8834L120.947 27.8805L117.951 27.72ZM117.396 44.037L120.395 44.1203L120.395 44.1113L120.396 44.1022L117.396 44.037ZM117.285 54.693H114.285V54.7013L114.285 54.7097L117.285 54.693ZM117.396 74.673H120.396V74.6647L120.396 74.6563L117.396 74.673ZM115.176 79.557L117.05 81.8996L117.085 81.8717L117.119 81.8428L115.176 79.557ZM103.188 79.335L101.067 81.4563L101.096 81.485L101.125 81.5129L103.188 79.335ZM101.19 72.453L98.1904 72.4292L98.1903 72.4411V72.453H101.19ZM101.301 58.467L98.3022 58.3956L98.3016 58.4194L98.3014 58.4432L101.301 58.467ZM103.077 19.506L106.035 20.0109L106.036 20.005L103.077 19.506ZM107.961 6.075L110.316 7.93393V7.93393L107.961 6.075ZM127.497 7.074L125.164 8.96016L125.176 8.97502L125.189 8.98972L127.497 7.074ZM133.935 18.84L131.08 19.7596L131.087 19.7814L131.094 19.8031L133.935 18.84ZM138.153 34.38L135.225 35.0308L141.068 35.09L138.153 34.38ZM142.704 19.062L145.521 20.0948L145.524 20.0873L145.526 20.0798L142.704 19.062ZM149.475 7.074L147.191 5.12964L147.179 5.14389L147.167 5.15828L149.475 7.074ZM169.233 6.741L166.728 8.39194L166.737 8.40522L166.746 8.41842L169.233 6.741ZM173.673 20.616L170.7 21.0149L170.703 21.0353L170.706 21.0556L173.673 20.616ZM172.005 43.815C172.005 47.6226 172.08 52.7179 172.228 59.0918L178.227 58.9522C178.079 52.5981 178.005 47.5554 178.005 43.815H172.005ZM172.228 59.0917C172.376 65.4476 172.449 70.3786 172.449 73.896H178.449C178.449 70.3094 178.375 65.3244 178.227 58.9522L172.228 59.0917ZM172.449 73.896C172.449 75.8384 171.923 76.954 171.219 77.6577L175.462 81.9003C177.57 79.792 178.449 76.9855 178.449 73.896H172.449ZM171.277 77.6011C170.58 78.2619 169.443 78.777 167.457 78.777V84.777C170.504 84.777 173.289 83.9601 175.404 81.9569L171.277 77.6011ZM167.457 78.777C165.48 78.777 164.265 78.2648 163.47 77.5491L159.456 82.0089C161.621 83.9572 164.403 84.777 167.457 84.777V78.777ZM163.47 77.5491C162.699 76.855 162.243 75.9294 162.243 74.451H156.243C156.243 77.4126 157.268 80.039 159.456 82.0089L163.47 77.5491ZM162.243 74.451V44.481H156.243V74.451H162.243ZM162.243 44.481C162.243 37.191 162.021 31.4379 161.559 27.2777L155.596 27.9403C156.021 31.7721 156.243 37.267 156.243 44.481H162.243ZM161.56 27.2837C161.333 25.2088 161.064 23.4926 160.722 22.2409C160.558 21.6386 160.326 20.9468 159.963 20.3421C159.692 19.8899 158.754 18.504 156.912 18.504V24.504C156.174 24.504 155.615 24.2069 155.287 23.9453C154.99 23.7088 154.85 23.482 154.819 23.429C154.761 23.333 154.821 23.4044 154.934 23.8196C155.147 24.6029 155.377 25.9392 155.595 27.9343L161.56 27.2837ZM156.912 18.504C155.486 18.504 154.57 19.3805 154.24 19.7264C153.814 20.1737 153.471 20.7021 153.198 21.1811C152.637 22.162 152.054 23.4996 151.445 25.098L157.052 27.234C157.627 25.7244 158.08 24.731 158.407 24.1579C158.577 23.8599 158.641 23.8056 158.585 23.8643C158.553 23.8981 158.423 24.0312 158.188 24.1682C157.948 24.3083 157.507 24.504 156.912 24.504V18.504ZM151.445 25.098C150.234 28.2763 149.172 31.4224 148.261 34.5363L154.02 36.2217C154.884 33.2676 155.895 30.2717 157.052 27.234L151.445 25.098ZM148.27 34.5076C146.991 38.7184 145.682 43.5846 144.34 49.0999L150.17 50.5181C151.493 45.0814 152.773 40.3276 154.011 36.2504L148.27 34.5076ZM144.351 49.0561C143.987 50.4595 143.37 51.2481 142.623 51.7337L145.893 56.7643C148.106 55.3259 149.487 53.1545 150.159 50.5619L144.351 49.0561ZM142.623 51.7337C141.783 52.2798 140.452 52.692 138.375 52.692V58.692C141.183 58.692 143.773 58.1422 145.893 56.7643L142.623 51.7337ZM138.375 52.692C136.228 52.692 134.836 52.2944 133.962 51.7654C133.164 51.2825 132.596 50.5746 132.269 49.4288L126.5 51.0772C127.208 53.5574 128.658 55.569 130.856 56.8991C132.979 58.1831 135.565 58.692 138.375 58.692V52.692ZM132.274 49.4466L130.942 44.6736L125.163 46.2864L126.495 51.0594L132.274 49.4466ZM130.945 44.6858C129.895 40.8611 128.805 37.2875 127.673 33.967L121.994 35.903C123.082 39.0945 124.137 42.5508 125.159 46.2741L130.945 44.6858ZM127.671 33.962C126.757 31.2959 125.622 28.3467 124.271 25.1186L118.736 27.4354C120.049 30.5712 121.134 33.3941 121.995 35.908L127.671 33.962ZM124.271 25.1186C123.595 23.5036 123.005 22.2055 122.511 21.2823C122.272 20.8349 121.999 20.3682 121.698 19.9759C121.552 19.7854 121.32 19.5068 121.002 19.2489C120.749 19.044 120.025 18.504 118.95 18.504V24.504C117.968 24.504 117.351 24.0137 117.221 23.9083C117.114 23.8209 117.041 23.7463 117.004 23.7059C116.965 23.6634 116.943 23.6349 116.938 23.6288C116.931 23.6195 116.955 23.6503 117.011 23.742C117.065 23.8296 117.134 23.9509 117.221 24.1122C117.578 24.78 118.08 25.8684 118.736 27.4354L124.271 25.1186ZM118.95 18.504C117.607 18.504 116.782 19.3093 116.45 19.722C116.11 20.1458 115.926 20.5818 115.829 20.8391C115.625 21.3835 115.498 22.0088 115.406 22.582C115.213 23.78 115.068 25.4628 114.956 27.5595L120.947 27.8805C121.057 25.8332 121.189 24.408 121.33 23.534C121.404 23.0712 121.457 22.9195 121.447 22.9459C121.44 22.965 121.418 23.0216 121.376 23.1021C121.337 23.1784 121.258 23.3175 121.128 23.4803C120.9 23.7634 120.183 24.504 118.95 24.504V18.504ZM114.956 27.5566C114.731 31.6737 114.545 37.1496 114.397 43.9718L120.396 44.1022C120.543 37.3084 120.727 31.9063 120.947 27.8834L114.956 27.5566ZM114.397 43.9537C114.322 46.6576 114.285 50.2408 114.285 54.693H120.285C120.285 50.2652 120.322 46.7444 120.395 44.1203L114.397 43.9537ZM114.285 54.7097L114.396 74.6897L120.396 74.6563L120.285 54.6763L114.285 54.7097ZM114.396 74.673C114.396 75.8198 114.021 76.6017 113.233 77.2712L117.119 81.8428C119.292 79.9963 120.396 77.5222 120.396 74.673H114.396ZM113.302 77.2144C112.52 77.8403 111.228 78.333 109.071 78.333V84.333C112.095 84.333 114.873 83.6417 117.05 81.8996L113.302 77.2144ZM109.071 78.333C107.086 78.333 105.949 77.8179 105.252 77.1571L101.125 81.5129C103.24 83.5161 106.025 84.333 109.071 84.333V78.333ZM105.31 77.2137C104.832 76.736 104.19 75.4526 104.19 72.453H98.1903C98.1903 75.9654 98.8806 79.27 101.067 81.4563L105.31 77.2137ZM104.19 72.4768L104.301 58.4908L98.3014 58.4432L98.1904 72.4292L104.19 72.4768ZM104.3 58.5384C104.449 52.3128 104.523 47.3647 104.523 43.704H98.5233C98.5233 47.2953 98.4499 52.1892 98.3022 58.3956L104.3 58.5384ZM104.523 43.704C104.523 33.7174 105.039 25.841 106.035 20.0109L100.12 19.0011C99.0435 25.307 98.5233 33.5626 98.5233 43.704H104.523ZM106.036 20.005C107.041 14.0416 108.561 10.1574 110.316 7.93393L105.607 4.21606C102.922 7.61664 101.185 12.6864 100.119 19.007L106.036 20.005ZM110.316 7.93393C111.959 5.85268 114.009 4.85699 116.73 4.85699V-1.14301C112.199 -1.14301 108.404 0.673306 105.607 4.21607L110.316 7.93393ZM116.73 4.85699C120.165 4.85699 122.906 6.16667 125.164 8.96016L129.83 5.18784C126.465 1.02532 122.028 -1.14301 116.73 -1.14301V4.85699ZM125.189 8.98972C127.827 12.1691 129.789 15.7519 131.08 19.7596L136.791 17.9204C135.27 13.1961 132.94 8.9349 129.806 5.15828L125.189 8.98972ZM131.094 19.8031C132.53 24.0395 133.909 29.1101 135.225 35.0308L141.082 33.7292C139.734 27.6619 138.3 22.3725 136.777 17.8769L131.094 19.8031ZM141.068 35.09C142.454 29.401 143.94 24.4064 145.521 20.0948L139.888 18.0292C138.213 22.5976 136.665 27.815 135.239 33.67L141.068 35.09ZM145.526 20.0798C147.044 15.8722 149.133 12.1842 151.784 8.98972L147.167 5.15828C144.045 8.91975 141.621 13.2238 139.882 18.0442L145.526 20.0798ZM151.76 9.01835C154.203 6.14727 156.983 4.85699 160.242 4.85699V-1.14301C155.066 -1.14301 150.667 1.04472 147.191 5.12964L151.76 9.01835ZM160.242 4.85699C163.065 4.85699 165.129 5.96447 166.728 8.39194L171.738 5.09006C169.046 1.00552 165.115 -1.14301 160.242 -1.14301V4.85699ZM166.746 8.41842C168.525 11.0557 169.915 15.1614 170.7 21.0149L176.647 20.2171C175.804 13.9345 174.234 8.79034 171.721 5.06357L166.746 8.41842ZM170.706 21.0556C171.564 26.8469 172.005 34.4181 172.005 43.815H178.005C178.005 34.2679 177.559 26.3731 176.641 20.1764L170.706 21.0556ZM218.694 79.224L217.052 81.7349L217.087 81.7574L217.122 81.779L218.694 79.224ZM215.142 74.562L218.059 73.8619L218.029 73.7361L217.988 73.6133L215.142 74.562ZM213.144 65.682L210.202 66.2703L210.207 66.2932L210.212 66.316L213.144 65.682ZM206.595 39.486L203.721 40.3446L203.724 40.3546L203.727 40.3646L206.595 39.486ZM202.377 24.39L205.285 23.6508L205.277 23.6188L205.268 23.5871L202.377 24.39ZM199.047 12.402L196.153 13.1914L196.157 13.2049L199.047 12.402ZM201.378 4.743L203.178 7.14299L203.21 7.11947L203.24 7.09513L201.378 4.743ZM212.367 3.855L210.593 6.27421L210.683 6.34002L210.777 6.39899L212.367 3.855ZM214.809 7.74L217.731 7.05831L217.729 7.04909L217.726 7.03988L214.809 7.74ZM216.252 13.623L213.349 14.3803L213.369 14.457L213.393 14.5326L216.252 13.623ZM217.473 17.952L214.553 18.6391L214.572 18.7194L214.595 18.7985L217.473 17.952ZM222.024 35.823L219.089 36.441L219.094 36.4645L219.099 36.4879L222.024 35.823ZM224.022 45.924L221.074 46.4794L221.08 46.5091L221.086 46.5386L224.022 45.924ZM225.909 54.693L228.838 54.0422L225.909 54.693ZM228.24 56.58L225.475 55.4158L225.449 55.4788L225.425 55.5429L228.24 56.58ZM229.683 52.695L226.854 51.6965L226.836 51.748L226.82 51.8002L229.683 52.695ZM230.682 49.809L233.528 50.7577L233.549 50.6958L233.567 50.6332L230.682 49.809ZM233.013 42.927L230.207 41.8653L230.196 41.8953L230.185 41.9255L233.013 42.927ZM235.455 36.822L232.744 35.5377L232.729 35.5705L232.714 35.6036L235.455 36.822ZM246.888 34.38L249.323 32.6271L246.888 34.38ZM250.995 43.149L248.165 44.1447L248.168 44.1528L250.995 43.149ZM260.097 46.479L257.155 45.8907L257.143 45.9514L257.134 46.0125L260.097 46.479ZM260.985 41.706L263.941 42.22L263.943 42.2096L263.944 42.1992L260.985 41.706ZM261.984 36.045L259.039 35.4736L259.037 35.4861L259.034 35.4987L261.984 36.045ZM267.978 7.85099L265.06 7.15328L265.059 7.16129L265.057 7.16931L267.978 7.85099ZM284.073 11.958L281.179 11.1686L281.176 11.179L281.173 11.1894L284.073 11.958ZM278.967 32.826L281.886 33.5186L281.889 33.5066L281.892 33.4945L278.967 32.826ZM277.413 39.375L280.331 40.0718L280.332 40.0676L277.413 39.375ZM273.75 55.914L270.813 55.305L270.809 55.3222L270.806 55.3395L273.75 55.914ZM271.419 67.569L268.488 66.9317L268.48 66.966L268.474 67.0005L271.419 67.569ZM270.198 73.896L273.14 74.4843L273.142 74.4744L273.144 74.4645L270.198 73.896ZM266.979 79.002L265.266 76.5393L266.979 79.002ZM253.659 78.891L251.925 81.3391L251.949 81.3557L251.972 81.3718L253.659 78.891ZM248.775 72.897L251.414 71.4705L251.382 71.4112L251.348 71.3535L248.775 72.897ZM245.556 66.237L242.82 67.4681L242.832 67.4937L242.844 67.5191L245.556 66.237ZM239.895 64.794L242.704 65.8474L242.72 65.8043L242.735 65.7608L239.895 64.794ZM236.676 72.786L233.993 71.4444L233.986 71.4589L233.979 71.4736L236.676 72.786ZM225.354 78C223.328 78 221.665 77.5298 220.267 76.669L217.122 81.779C219.571 83.2862 222.348 84 225.354 84V78ZM220.336 76.7131C218.911 75.7816 218.289 74.8184 218.059 73.8619L212.225 75.2621C212.883 78.0056 214.629 80.1504 217.052 81.7349L220.336 76.7131ZM217.988 73.6133C218.001 73.6528 217.964 73.5266 217.852 73.0595C217.755 72.6531 217.624 72.0853 217.459 71.3505C217.128 69.8828 216.668 67.7834 216.076 65.048L210.212 66.316C210.805 69.0566 211.269 71.1752 211.605 72.6675C211.916 74.0491 212.161 75.1048 212.296 75.5107L217.988 73.6133ZM216.086 65.0937C214.218 55.7551 212.012 46.9256 209.464 38.6074L203.727 40.3646C206.211 48.4744 208.37 57.1089 210.202 66.2703L216.086 65.0937ZM209.47 38.6274C207.776 32.9573 206.382 27.9665 205.285 23.6508L199.47 25.1292C200.592 29.5455 202.01 34.6187 203.721 40.3446L209.47 38.6274ZM205.268 23.5871L201.938 11.5991L196.157 13.2049L199.487 25.1929L205.268 23.5871ZM201.942 11.6126C201.772 10.9909 201.714 10.5215 201.714 10.182H195.714C195.714 11.1745 195.878 12.1851 196.153 13.1913L201.942 11.6126ZM201.714 10.182C201.714 8.79531 202.187 7.88662 203.178 7.14299L199.578 2.34299C197.018 4.26337 195.714 6.98068 195.714 10.182H201.714ZM203.24 7.09513C204.397 6.17969 205.926 5.634 208.038 5.634V-0.366005C204.822 -0.366005 201.912 0.494305 199.516 2.39086L203.24 7.09513ZM208.038 5.634C209.362 5.634 210.129 5.93419 210.593 6.27421L214.141 1.43578C212.385 0.147804 210.267 -0.366005 208.038 -0.366005V5.634ZM210.777 6.39899C211.082 6.58958 211.564 7.07141 211.892 8.44011L217.726 7.03988C217.167 4.70858 216.02 2.60041 213.957 1.311L210.777 6.39899ZM211.888 8.42169C212.41 10.66 212.897 12.6471 213.349 14.3803L219.155 12.8657C218.719 11.1949 218.244 9.25997 217.731 7.05831L211.888 8.42169ZM213.393 14.5326C213.895 16.109 214.279 17.4754 214.553 18.6391L220.393 17.2649C220.075 15.9126 219.645 14.393 219.111 12.7134L213.393 14.5326ZM214.595 18.7985C216.426 25.0234 217.923 30.9037 219.089 36.441L224.96 35.205C223.758 29.4943 222.22 23.4606 220.351 17.1055L214.595 18.7985ZM219.099 36.4879C219.454 38.0518 220.11 41.3628 221.074 46.4794L226.97 45.3686C226.01 40.2732 225.334 36.8502 224.95 35.1581L219.099 36.4879ZM221.086 46.5386C221.754 49.7305 222.386 52.6657 222.981 55.3438L228.838 54.0422C228.249 51.3923 227.623 48.4815 226.959 45.3094L221.086 46.5386ZM222.981 55.3438C223.281 56.6945 223.551 57.7857 223.789 58.5667C223.903 58.9392 224.044 59.3544 224.216 59.7203C224.295 59.8878 224.45 60.1963 224.702 60.5085C224.823 60.6586 225.635 61.689 227.13 61.689V55.689C227.889 55.689 228.454 55.9754 228.772 56.1917C229.084 56.4038 229.28 56.6273 229.375 56.7446C229.559 56.9736 229.641 57.1572 229.642 57.1582C229.657 57.191 229.617 57.1068 229.528 56.8133C229.359 56.2623 229.13 55.3555 228.838 54.0422L222.981 55.3438ZM227.13 61.689C227.958 61.689 228.572 61.3647 228.905 61.1385C229.244 60.9082 229.48 60.6554 229.619 60.4896C229.897 60.1598 230.097 59.8091 230.229 59.559C230.507 59.0304 230.783 58.3559 231.055 57.6171L225.425 55.5429C225.179 56.2102 225.011 56.5901 224.919 56.7645C224.866 56.8659 224.9 56.7788 225.03 56.6248C225.095 56.5469 225.261 56.3599 225.536 56.1736C225.804 55.9914 226.357 55.689 227.13 55.689V61.689ZM231.005 57.7442C231.626 56.2691 232.143 54.883 232.547 53.5898L226.82 51.8002C226.484 52.875 226.038 54.0788 225.475 55.4158L231.005 57.7442ZM232.512 53.6935C232.958 52.4308 233.298 51.4491 233.528 50.7577L227.836 48.8603C227.623 49.5009 227.297 50.4432 226.854 51.6965L232.512 53.6935ZM233.567 50.6332C233.832 49.7048 234.574 47.5051 235.841 43.9285L230.185 41.9255C228.936 45.4529 228.124 47.8412 227.798 48.9848L233.567 50.6332ZM235.819 43.9887C236.851 41.2621 237.64 39.292 238.197 38.0404L232.714 35.6036C232.086 37.016 231.248 39.1159 230.207 41.8653L235.819 43.9887ZM238.166 38.1063C238.694 36.9917 239.351 36.0585 240.13 35.2803L235.887 31.0377C234.593 32.3315 233.548 33.8403 232.744 35.5377L238.166 38.1063ZM240.13 35.2803C240.597 34.8133 241.089 34.605 241.782 34.605V28.605C239.516 28.605 237.492 29.4327 235.887 31.0377L240.13 35.2803ZM241.782 34.605C242.782 34.605 243.62 34.9747 244.454 36.1329L249.323 32.6271C247.493 30.0853 244.926 28.605 241.782 28.605V34.605ZM244.454 36.1329C245.532 37.6304 246.788 40.2295 248.165 44.1447L253.825 42.1533C252.391 38.0765 250.909 34.8296 249.323 32.6271L244.454 36.1329ZM248.168 44.1528C249.986 49.2737 251.464 53.1748 252.594 55.8168C253.152 57.1242 253.662 58.2087 254.115 59.0001C254.334 59.3823 254.605 59.8133 254.927 60.1868C255.087 60.3722 255.337 60.6353 255.679 60.8724C255.997 61.0926 256.647 61.467 257.544 61.467V55.467C258.349 55.467 258.896 55.8015 259.098 55.9419C259.325 56.0992 259.449 56.2426 259.471 56.2685C259.518 56.3228 259.469 56.2752 259.322 56.0192C259.044 55.534 258.643 54.7038 258.11 53.4582C257.057 50.9942 255.63 47.2363 253.822 42.1452L248.168 44.1528ZM257.544 61.467C258.733 61.467 259.487 60.8102 259.763 60.5316C260.076 60.2161 260.266 59.8949 260.363 59.7179C260.566 59.3458 260.708 58.9481 260.807 58.6426C261.018 57.9914 261.231 57.1196 261.45 56.0949C261.893 54.0155 262.43 50.9539 263.061 46.9455L257.134 46.0125C256.507 49.9961 255.989 52.9285 255.581 54.8451C255.374 55.8184 255.212 56.4451 255.1 56.7929C255.037 56.9869 255.03 56.9638 255.097 56.8414C255.125 56.7894 255.25 56.5618 255.501 56.3087C255.715 56.0925 256.411 55.467 257.544 55.467V61.467ZM263.039 47.0673C263.341 45.5594 263.641 43.9434 263.941 42.22L258.03 41.192C257.737 42.8726 257.446 44.4386 257.155 45.8907L263.039 47.0673ZM263.944 42.1992C264.237 40.443 264.567 38.5738 264.934 36.5913L259.034 35.4987C258.661 37.5122 258.325 39.417 258.026 41.2128L263.944 42.1992ZM264.929 36.6164C266.847 26.7335 268.837 17.3724 270.9 8.53268L265.057 7.16931C262.975 16.0896 260.97 25.5245 259.039 35.4736L264.929 36.6164ZM270.896 8.54871C271.16 7.44312 271.618 6.8573 272.146 6.4947C272.729 6.09434 273.727 5.745 275.415 5.745V-0.255005C272.96 -0.255005 270.646 0.246655 268.75 1.54829C266.799 2.8877 265.61 4.85487 265.06 7.15328L270.896 8.54871ZM275.415 5.745C277.473 5.745 278.929 6.264 280.004 7.10551L283.702 2.38048C281.373 0.557987 278.538 -0.255005 275.415 -0.255005V5.745ZM280.004 7.10551C281.016 7.89737 281.406 8.74483 281.406 9.849H287.406C287.406 6.80916 286.094 4.25262 283.702 2.38048L280.004 7.10551ZM281.406 9.849C281.406 10.0879 281.358 10.5125 281.179 11.1686L286.967 12.7474C287.233 11.7755 287.406 10.7941 287.406 9.849H281.406ZM281.173 11.1894C279.535 17.3717 277.824 24.362 276.043 32.1575L281.892 33.4945C283.662 25.75 285.356 18.8283 286.973 12.7266L281.173 11.1894ZM276.048 32.1334L274.494 38.6824L280.332 40.0676L281.886 33.5186L276.048 32.1334ZM274.495 38.6782C273.303 43.6708 272.076 49.2136 270.813 55.305L276.688 56.523C277.941 50.4784 279.155 44.9952 280.331 40.0718L274.495 38.6782ZM270.806 55.3395C269.62 61.4166 268.849 65.2674 268.488 66.9317L274.351 68.2063C274.729 66.4666 275.512 62.5474 276.695 56.4885L270.806 55.3395ZM268.474 67.0005L267.253 73.3275L273.144 74.4645L274.365 68.1375L268.474 67.0005ZM267.256 73.3077C266.949 74.8441 266.27 75.8405 265.266 76.5393L268.692 81.4647C271.092 79.7955 272.559 77.3879 273.14 74.4843L267.256 73.3077ZM265.266 76.5393C264.193 77.2858 262.656 77.778 260.43 77.778V83.778C263.533 83.778 266.362 83.0862 268.692 81.4647L265.266 76.5393ZM260.43 77.778C258.251 77.778 256.61 77.2696 255.346 76.4102L251.972 81.3718C254.409 83.0284 257.282 83.778 260.43 83.778V77.778ZM255.393 76.4429C254.12 75.5408 252.763 73.9654 251.414 71.4705L246.136 74.3235C247.747 77.3046 249.647 79.7252 251.925 81.3391L255.393 76.4429ZM251.348 71.3535C251.363 71.3789 251.307 71.2805 251.132 70.931C250.979 70.6247 250.771 70.199 250.505 69.649C249.974 68.5506 249.229 66.9873 248.268 64.9549L242.844 67.5191C243.807 69.5567 244.561 71.1384 245.103 72.26C245.604 73.297 246.003 74.1076 246.203 74.4405L251.348 71.3535ZM248.292 65.0059C247.287 62.7735 246.474 61.0489 245.863 59.8649C245.563 59.2843 245.275 58.7627 245.012 58.3583C244.888 58.1679 244.706 57.9036 244.478 57.6539C244.366 57.532 244.166 57.3277 243.884 57.1334C243.653 56.9743 243.022 56.577 242.115 56.577V62.577C241.245 62.577 240.658 62.197 240.477 62.0727C240.246 61.913 240.103 61.7608 240.055 61.7082C239.953 61.5973 239.925 61.5411 239.981 61.6282C240.079 61.7788 240.259 62.0897 240.532 62.6191C241.067 63.6551 241.827 65.2606 242.82 67.4681L248.292 65.0059ZM242.115 56.577C240.725 56.577 239.91 57.4836 239.793 57.6082C239.528 57.8913 239.343 58.1831 239.233 58.3676C238.998 58.7608 238.779 59.2344 238.578 59.7066C238.163 60.6812 237.653 62.0703 237.055 63.8272L242.735 65.7608C243.321 64.0397 243.773 62.8203 244.099 62.0559C244.268 61.6586 244.362 61.4801 244.387 61.4385C244.407 61.4056 244.337 61.5344 244.173 61.7088C244.09 61.7978 243.911 61.9768 243.632 62.1489C243.36 62.3173 242.833 62.577 242.115 62.577V56.577ZM237.086 63.7406C235.519 67.9212 234.501 70.4282 233.993 71.4444L239.359 74.1276C240.035 72.7757 241.164 69.9548 242.704 65.8474L237.086 63.7406ZM233.979 71.4736C232.798 73.8996 231.471 75.5137 230.086 76.5182C228.737 77.4972 227.195 78 225.354 78V84C228.397 84 231.185 83.1338 233.609 81.3748C235.999 79.6413 237.89 77.1484 239.374 74.0984L233.979 71.4736Z" fill="#186F65" mask="url(#path-1-outside-1_640_178)"/>
</svg>
