<svg width="380" height="70" viewBox="0 0 389 82" fill="none" xmlns="http://www.w3.org/2000/svg">
<mask id="path-1-outside-1_640_177" maskUnits="userSpaceOnUse" x="-3" y="-3" width="395" height="88" fill="black">
<rect fill="white" x="-3" y="-3" width="395" height="88"/>
<path d="M26.4387 81C23.9453 81 21.7453 80.4133 19.8387 79.24C17.932 77.9933 16.7587 76.4533 16.3187 74.62C16.172 74.18 15.512 71.2467 14.3387 65.82C12.5053 56.6533 10.342 48 7.84867 39.86C6.16201 34.2133 4.76867 29.2267 3.66867 24.9L0.368672 13.02C0.148672 12.2133 0.0386722 11.48 0.0386722 10.82C0.0386722 8.54666 0.918672 6.75 2.67867 5.43C4.43867 4.03666 6.63867 3.34 9.27867 3.34C11.0387 3.34 12.4687 3.74333 13.5687 4.54999C14.742 5.28333 15.5487 6.56666 15.9887 8.4C16.502 10.6 16.9787 12.5433 17.4187 14.23C17.932 15.8433 18.3353 17.2733 18.6287 18.52C20.462 24.7533 21.9653 30.6567 23.1387 36.23C23.5053 37.8433 24.1653 41.18 25.1187 46.24C25.7787 49.3933 26.402 52.29 26.9887 54.93C27.5753 57.57 27.9787 58.89 28.1987 58.89C28.4187 58.89 28.7853 58.1933 29.2987 56.8C29.8853 55.4067 30.362 54.1233 30.7287 52.95C31.1687 51.7033 31.4987 50.75 31.7187 50.09C32.012 49.0633 32.782 46.79 34.0287 43.27C35.0553 40.5567 35.862 38.54 36.4487 37.22C37.1087 35.8267 37.952 34.6167 38.9787 33.59C40.0053 32.5633 41.252 32.05 42.7187 32.05C44.772 32.05 46.4587 32.9667 47.7787 34.8C49.0987 36.6333 50.4553 39.53 51.8487 43.49C55.442 53.61 57.6053 58.67 58.3387 58.67C58.7787 58.67 59.622 54.71 60.8687 46.79C61.162 45.3233 61.4553 43.7467 61.7487 42.06C62.042 40.3 62.372 38.43 62.7387 36.45C64.6453 26.6233 66.6253 17.31 68.6787 8.51C69.4853 5.13666 71.942 3.45 76.0487 3.45C78.6153 3.45 80.742 4.11 82.4287 5.43C84.1153 6.75 84.9587 8.43666 84.9587 10.49C84.9587 11.0767 84.8487 11.7733 84.6287 12.58C83.0153 18.6667 81.3287 25.56 79.5687 33.26L78.0287 39.75C76.8553 44.6633 75.6453 50.1267 74.3987 56.14C73.2253 62.1533 72.4553 66.0033 72.0887 67.69L70.8787 73.96C70.4387 76.16 69.3753 77.8467 67.6887 79.02C66.002 80.1933 63.8387 80.78 61.1987 80.78C58.5587 80.78 56.322 80.1567 54.4887 78.91C52.7287 77.6633 51.1153 75.6833 49.6487 72.97C49.4287 72.6033 48.3653 70.4033 46.4587 66.37C44.4787 61.97 43.342 59.77 43.0487 59.77C42.7553 59.77 42.022 61.4933 40.8487 64.94C39.3087 69.0467 38.2453 71.6867 37.6587 72.86C35.0187 78.2867 31.2787 81 26.4387 81ZM175.661 38.65C176.981 38.65 178.227 39.2733 179.401 40.52C180.574 41.6933 181.161 43.49 181.161 45.91C181.161 48.33 180.574 50.1267 179.401 51.3C178.227 52.4733 176.944 53.06 175.551 53.06H174.671L175.221 73.63C175.294 75.9767 174.597 77.8467 173.131 79.24C171.737 80.56 169.794 81.22 167.301 81.22C164.881 81.22 162.937 80.5967 161.471 79.35C160.004 78.03 159.234 76.27 159.161 74.07L158.501 52.84L130.451 52.4L128.581 76.05C128.287 79.8633 125.647 81.77 120.661 81.77C117.874 81.77 115.784 81.22 114.391 80.12C112.997 78.9467 112.374 77.2233 112.521 74.95L114.281 52.18H113.621C111.861 52.18 110.467 51.5567 109.441 50.31C108.487 48.99 108.011 47.1933 108.011 44.92C108.011 42.6467 108.561 40.9233 109.661 39.75C110.761 38.5033 112.227 37.88 114.061 37.88H115.491L117.801 8.17999C117.947 6.2 118.791 4.58666 120.331 3.34C121.871 2.09333 123.851 1.46999 126.271 1.46999C128.837 1.46999 130.781 2.20333 132.101 3.67C133.421 5.13666 134.007 7.04333 133.861 9.39L131.551 38.1L158.061 38.43L157.181 8.95C157.107 6.74999 157.767 4.95333 159.161 3.55999C160.627 2.16666 162.644 1.46999 165.211 1.46999C167.631 1.46999 169.574 2.16666 171.041 3.55999C172.507 4.87999 173.277 6.52999 173.351 8.51L174.231 38.65H175.661ZM236.236 80.89C233.67 80.89 231.69 80.23 230.296 78.91C228.903 77.59 228.206 75.7933 228.206 73.52L227.876 44.48C226.85 44.48 224.906 43.0867 222.046 40.3C219.26 37.44 217.06 34.8 215.446 32.38C214.053 30.3267 212.44 27.5033 210.606 23.91C208.773 20.3167 207.123 16.65 205.656 12.91C205.436 12.3233 205.326 11.7367 205.326 11.15C205.326 9.31666 206.206 7.63 207.966 6.08999C209.8 4.55 211.963 3.78 214.456 3.78C216.216 3.78 217.683 4.25666 218.856 5.21C220.03 6.09 221.093 7.52 222.046 9.5C225.493 16.6133 228.243 21.93 230.296 25.45C233.23 30.29 235.21 32.71 236.236 32.71C237.19 32.71 238.986 30.29 241.626 25.45L250.206 9.06C251.16 7.3 252.076 6.01666 252.956 5.21C253.91 4.40333 255.376 3.99999 257.356 3.99999C260.07 3.99999 262.306 4.62333 264.066 5.87C265.826 7.04333 266.706 8.69333 266.706 10.82C266.706 11.5533 266.45 12.6167 265.936 14.01C265.276 15.6967 263.81 18.7767 261.536 23.25C259.336 27.65 257.576 30.84 256.256 32.82C254.496 35.5333 252.223 38.1733 249.436 40.74C246.723 43.2333 244.853 44.48 243.826 44.48L244.156 73.19C244.156 75.61 243.46 77.5167 242.066 78.91C240.746 80.23 238.803 80.89 236.236 80.89ZM298.746 0.259997C301.826 0.259997 304.283 1.17666 306.116 3.00999C308.023 4.84333 308.976 7.37333 308.976 10.6C308.976 13.6067 308.39 16.4667 307.216 19.18C306.043 21.82 303.99 24.4233 301.056 26.99C299.883 28.0167 298.82 28.53 297.866 28.53C296.693 28.53 295.63 28.1633 294.676 27.43C293.796 26.6967 293.356 25.78 293.356 24.68C293.356 23.58 293.76 22.5167 294.566 21.49C294.713 21.27 295.043 20.8667 295.556 20.28C296.143 19.62 296.876 18.7033 297.756 17.53C295.63 17.31 293.723 16.5033 292.036 15.11C290.35 13.6433 289.506 11.37 289.506 8.29C289.506 6.01666 290.35 4.11 292.036 2.56999C293.723 1.03 295.96 0.259997 298.746 0.259997ZM295.886 8.73C295.886 9.53666 296.106 10.2333 296.546 10.82C297.06 11.4067 297.83 11.7 298.856 11.7C299.956 11.7 300.726 11.4067 301.166 10.82C301.68 10.2333 301.936 9.53666 301.936 8.73C301.936 6.89666 300.873 5.98 298.746 5.98C297.94 5.98 297.243 6.27333 296.656 6.86C296.143 7.37333 295.886 7.99666 295.886 8.73ZM362.093 81.11C356.593 81.11 351.643 79.9733 347.243 77.7C342.916 75.3533 339.506 72.31 337.013 68.57C334.593 64.7567 333.383 60.6867 333.383 56.36C333.383 53.5733 334.079 51.5567 335.473 50.31C336.939 49.0633 338.809 48.44 341.082 48.44C346.436 48.44 349.223 50.6767 349.443 55.15C349.663 58.89 351.019 61.7867 353.513 63.84C356.006 65.82 358.866 66.81 362.093 66.81C364.879 66.81 367.373 66.1867 369.573 64.94C371.773 63.6933 372.873 61.86 372.873 59.44C372.873 57.5333 372.176 55.9567 370.783 54.71C369.389 53.39 367.739 52.4 365.833 51.74C363.999 51.0067 361.433 50.1633 358.133 49.21C353.879 48.0367 350.103 46.7533 346.803 45.36C343.503 43.9667 340.386 41.73 337.453 38.65C334.593 35.4967 333.163 31.4633 333.163 26.55C333.163 22.0767 334.373 18.0433 336.793 14.45C339.286 10.8567 342.623 8.06999 346.803 6.08999C350.983 4.03666 355.566 3.00999 360.553 3.00999C365.759 3.00999 370.453 4.11 374.633 6.31C378.886 8.43666 382.223 11.2967 384.642 14.89C387.063 18.4833 388.273 22.26 388.273 26.22C388.273 31.06 385.633 33.48 380.353 33.48C378.079 33.48 376.356 32.93 375.183 31.83C374.083 30.73 373.203 28.9333 372.543 26.44C371.883 23.9467 370.526 21.7833 368.473 19.95C366.493 18.1167 363.853 17.2 360.553 17.2C357.326 17.2 354.613 18.08 352.413 19.84C350.213 21.5267 349.113 23.8367 349.113 26.77C349.113 28.8233 349.919 30.3267 351.533 31.28C353.219 32.2333 356.409 33.4067 361.103 34.8C361.543 34.9467 362.056 35.13 362.643 35.35C363.229 35.4967 363.853 35.68 364.513 35.9C368.546 37.1467 372.249 38.5767 375.623 40.19C378.996 41.8033 382.039 44.1867 384.753 47.34C387.466 50.4933 388.823 54.4167 388.823 59.11C388.823 63.3633 387.613 67.1767 385.193 70.55C382.846 73.85 379.619 76.4533 375.513 78.36C371.479 80.1933 367.006 81.11 362.093 81.11Z"/>
</mask>
<path d="M26.4387 81C23.9453 81 21.7453 80.4133 19.8387 79.24C17.932 77.9933 16.7587 76.4533 16.3187 74.62C16.172 74.18 15.512 71.2467 14.3387 65.82C12.5053 56.6533 10.342 48 7.84867 39.86C6.16201 34.2133 4.76867 29.2267 3.66867 24.9L0.368672 13.02C0.148672 12.2133 0.0386722 11.48 0.0386722 10.82C0.0386722 8.54666 0.918672 6.75 2.67867 5.43C4.43867 4.03666 6.63867 3.34 9.27867 3.34C11.0387 3.34 12.4687 3.74333 13.5687 4.54999C14.742 5.28333 15.5487 6.56666 15.9887 8.4C16.502 10.6 16.9787 12.5433 17.4187 14.23C17.932 15.8433 18.3353 17.2733 18.6287 18.52C20.462 24.7533 21.9653 30.6567 23.1387 36.23C23.5053 37.8433 24.1653 41.18 25.1187 46.24C25.7787 49.3933 26.402 52.29 26.9887 54.93C27.5753 57.57 27.9787 58.89 28.1987 58.89C28.4187 58.89 28.7853 58.1933 29.2987 56.8C29.8853 55.4067 30.362 54.1233 30.7287 52.95C31.1687 51.7033 31.4987 50.75 31.7187 50.09C32.012 49.0633 32.782 46.79 34.0287 43.27C35.0553 40.5567 35.862 38.54 36.4487 37.22C37.1087 35.8267 37.952 34.6167 38.9787 33.59C40.0053 32.5633 41.252 32.05 42.7187 32.05C44.772 32.05 46.4587 32.9667 47.7787 34.8C49.0987 36.6333 50.4553 39.53 51.8487 43.49C55.442 53.61 57.6053 58.67 58.3387 58.67C58.7787 58.67 59.622 54.71 60.8687 46.79C61.162 45.3233 61.4553 43.7467 61.7487 42.06C62.042 40.3 62.372 38.43 62.7387 36.45C64.6453 26.6233 66.6253 17.31 68.6787 8.51C69.4853 5.13666 71.942 3.45 76.0487 3.45C78.6153 3.45 80.742 4.11 82.4287 5.43C84.1153 6.75 84.9587 8.43666 84.9587 10.49C84.9587 11.0767 84.8487 11.7733 84.6287 12.58C83.0153 18.6667 81.3287 25.56 79.5687 33.26L78.0287 39.75C76.8553 44.6633 75.6453 50.1267 74.3987 56.14C73.2253 62.1533 72.4553 66.0033 72.0887 67.69L70.8787 73.96C70.4387 76.16 69.3753 77.8467 67.6887 79.02C66.002 80.1933 63.8387 80.78 61.1987 80.78C58.5587 80.78 56.322 80.1567 54.4887 78.91C52.7287 77.6633 51.1153 75.6833 49.6487 72.97C49.4287 72.6033 48.3653 70.4033 46.4587 66.37C44.4787 61.97 43.342 59.77 43.0487 59.77C42.7553 59.77 42.022 61.4933 40.8487 64.94C39.3087 69.0467 38.2453 71.6867 37.6587 72.86C35.0187 78.2867 31.2787 81 26.4387 81ZM175.661 38.65C176.981 38.65 178.227 39.2733 179.401 40.52C180.574 41.6933 181.161 43.49 181.161 45.91C181.161 48.33 180.574 50.1267 179.401 51.3C178.227 52.4733 176.944 53.06 175.551 53.06H174.671L175.221 73.63C175.294 75.9767 174.597 77.8467 173.131 79.24C171.737 80.56 169.794 81.22 167.301 81.22C164.881 81.22 162.937 80.5967 161.471 79.35C160.004 78.03 159.234 76.27 159.161 74.07L158.501 52.84L130.451 52.4L128.581 76.05C128.287 79.8633 125.647 81.77 120.661 81.77C117.874 81.77 115.784 81.22 114.391 80.12C112.997 78.9467 112.374 77.2233 112.521 74.95L114.281 52.18H113.621C111.861 52.18 110.467 51.5567 109.441 50.31C108.487 48.99 108.011 47.1933 108.011 44.92C108.011 42.6467 108.561 40.9233 109.661 39.75C110.761 38.5033 112.227 37.88 114.061 37.88H115.491L117.801 8.17999C117.947 6.2 118.791 4.58666 120.331 3.34C121.871 2.09333 123.851 1.46999 126.271 1.46999C128.837 1.46999 130.781 2.20333 132.101 3.67C133.421 5.13666 134.007 7.04333 133.861 9.39L131.551 38.1L158.061 38.43L157.181 8.95C157.107 6.74999 157.767 4.95333 159.161 3.55999C160.627 2.16666 162.644 1.46999 165.211 1.46999C167.631 1.46999 169.574 2.16666 171.041 3.55999C172.507 4.87999 173.277 6.52999 173.351 8.51L174.231 38.65H175.661ZM236.236 80.89C233.67 80.89 231.69 80.23 230.296 78.91C228.903 77.59 228.206 75.7933 228.206 73.52L227.876 44.48C226.85 44.48 224.906 43.0867 222.046 40.3C219.26 37.44 217.06 34.8 215.446 32.38C214.053 30.3267 212.44 27.5033 210.606 23.91C208.773 20.3167 207.123 16.65 205.656 12.91C205.436 12.3233 205.326 11.7367 205.326 11.15C205.326 9.31666 206.206 7.63 207.966 6.08999C209.8 4.55 211.963 3.78 214.456 3.78C216.216 3.78 217.683 4.25666 218.856 5.21C220.03 6.09 221.093 7.52 222.046 9.5C225.493 16.6133 228.243 21.93 230.296 25.45C233.23 30.29 235.21 32.71 236.236 32.71C237.19 32.71 238.986 30.29 241.626 25.45L250.206 9.06C251.16 7.3 252.076 6.01666 252.956 5.21C253.91 4.40333 255.376 3.99999 257.356 3.99999C260.07 3.99999 262.306 4.62333 264.066 5.87C265.826 7.04333 266.706 8.69333 266.706 10.82C266.706 11.5533 266.45 12.6167 265.936 14.01C265.276 15.6967 263.81 18.7767 261.536 23.25C259.336 27.65 257.576 30.84 256.256 32.82C254.496 35.5333 252.223 38.1733 249.436 40.74C246.723 43.2333 244.853 44.48 243.826 44.48L244.156 73.19C244.156 75.61 243.46 77.5167 242.066 78.91C240.746 80.23 238.803 80.89 236.236 80.89ZM298.746 0.259997C301.826 0.259997 304.283 1.17666 306.116 3.00999C308.023 4.84333 308.976 7.37333 308.976 10.6C308.976 13.6067 308.39 16.4667 307.216 19.18C306.043 21.82 303.99 24.4233 301.056 26.99C299.883 28.0167 298.82 28.53 297.866 28.53C296.693 28.53 295.63 28.1633 294.676 27.43C293.796 26.6967 293.356 25.78 293.356 24.68C293.356 23.58 293.76 22.5167 294.566 21.49C294.713 21.27 295.043 20.8667 295.556 20.28C296.143 19.62 296.876 18.7033 297.756 17.53C295.63 17.31 293.723 16.5033 292.036 15.11C290.35 13.6433 289.506 11.37 289.506 8.29C289.506 6.01666 290.35 4.11 292.036 2.56999C293.723 1.03 295.96 0.259997 298.746 0.259997ZM295.886 8.73C295.886 9.53666 296.106 10.2333 296.546 10.82C297.06 11.4067 297.83 11.7 298.856 11.7C299.956 11.7 300.726 11.4067 301.166 10.82C301.68 10.2333 301.936 9.53666 301.936 8.73C301.936 6.89666 300.873 5.98 298.746 5.98C297.94 5.98 297.243 6.27333 296.656 6.86C296.143 7.37333 295.886 7.99666 295.886 8.73ZM362.093 81.11C356.593 81.11 351.643 79.9733 347.243 77.7C342.916 75.3533 339.506 72.31 337.013 68.57C334.593 64.7567 333.383 60.6867 333.383 56.36C333.383 53.5733 334.079 51.5567 335.473 50.31C336.939 49.0633 338.809 48.44 341.082 48.44C346.436 48.44 349.223 50.6767 349.443 55.15C349.663 58.89 351.019 61.7867 353.513 63.84C356.006 65.82 358.866 66.81 362.093 66.81C364.879 66.81 367.373 66.1867 369.573 64.94C371.773 63.6933 372.873 61.86 372.873 59.44C372.873 57.5333 372.176 55.9567 370.783 54.71C369.389 53.39 367.739 52.4 365.833 51.74C363.999 51.0067 361.433 50.1633 358.133 49.21C353.879 48.0367 350.103 46.7533 346.803 45.36C343.503 43.9667 340.386 41.73 337.453 38.65C334.593 35.4967 333.163 31.4633 333.163 26.55C333.163 22.0767 334.373 18.0433 336.793 14.45C339.286 10.8567 342.623 8.06999 346.803 6.08999C350.983 4.03666 355.566 3.00999 360.553 3.00999C365.759 3.00999 370.453 4.11 374.633 6.31C378.886 8.43666 382.223 11.2967 384.642 14.89C387.063 18.4833 388.273 22.26 388.273 26.22C388.273 31.06 385.633 33.48 380.353 33.48C378.079 33.48 376.356 32.93 375.183 31.83C374.083 30.73 373.203 28.9333 372.543 26.44C371.883 23.9467 370.526 21.7833 368.473 19.95C366.493 18.1167 363.853 17.2 360.553 17.2C357.326 17.2 354.613 18.08 352.413 19.84C350.213 21.5267 349.113 23.8367 349.113 26.77C349.113 28.8233 349.919 30.3267 351.533 31.28C353.219 32.2333 356.409 33.4067 361.103 34.8C361.543 34.9467 362.056 35.13 362.643 35.35C363.229 35.4967 363.853 35.68 364.513 35.9C368.546 37.1467 372.249 38.5767 375.623 40.19C378.996 41.8033 382.039 44.1867 384.753 47.34C387.466 50.4933 388.823 54.4167 388.823 59.11C388.823 63.3633 387.613 67.1767 385.193 70.55C382.846 73.85 379.619 76.4533 375.513 78.36C371.479 80.1933 367.006 81.11 362.093 81.11Z" fill="#186F65"/>
<path d="M19.8387 79.24L18.1969 81.7509L18.2314 81.7734L18.2664 81.795L19.8387 79.24ZM16.3187 74.62L19.2358 73.9199L19.2056 73.7941L19.1647 73.6713L16.3187 74.62ZM14.3387 65.82L11.3969 66.4083L11.4015 66.4312L11.4064 66.454L14.3387 65.82ZM7.84867 39.86L4.97417 40.7186L4.97716 40.7286L4.98022 40.7386L7.84867 39.86ZM3.66867 24.9L6.57618 24.1608L6.56805 24.1288L6.55923 24.0971L3.66867 24.9ZM0.368671 13.02L-2.52565 13.8094L-2.52188 13.8229L0.368671 13.02ZM2.67867 5.43L4.47867 7.82999L4.51004 7.80647L4.54078 7.78214L2.67867 5.43ZM13.5687 4.55L11.7946 6.96921L11.8843 7.03502L11.9787 7.09399L13.5687 4.55ZM15.9887 8.4L18.9102 7.71831L18.908 7.70909L18.9058 7.69988L15.9887 8.4ZM17.4187 14.23L14.5158 14.9873L14.5358 15.064L14.5599 15.1396L17.4187 14.23ZM18.6287 18.52L15.7084 19.2071L15.7273 19.2874L15.7506 19.3665L18.6287 18.52ZM23.1387 36.23L20.203 36.848L20.208 36.8715L20.2133 36.8949L23.1387 36.23ZM25.1187 46.24L22.1705 46.7954L22.1761 46.8251L22.1823 46.8546L25.1187 46.24ZM26.9887 54.93L29.9172 54.2792L26.9887 54.93ZM29.2987 56.8L26.5338 55.6358L26.5073 55.6988L26.4836 55.7629L29.2987 56.8ZM30.7287 52.95L27.8997 51.9515L27.8815 52.003L27.8652 52.0552L30.7287 52.95ZM31.7187 50.09L34.5647 51.0387L34.5853 50.9768L34.6032 50.9142L31.7187 50.09ZM34.0287 43.27L31.2228 42.2083L31.2115 42.2383L31.2008 42.2685L34.0287 43.27ZM36.4487 37.22L33.7375 35.9357L33.722 35.9685L33.7072 36.0016L36.4487 37.22ZM47.7787 34.8L50.2133 33.0471V33.0471L47.7787 34.8ZM51.8487 43.49L49.0187 44.4857L49.0216 44.4938L51.8487 43.49ZM60.8687 46.79L57.9269 46.2017L57.9148 46.2624L57.9052 46.3235L60.8687 46.79ZM61.7487 42.06L64.7043 42.574L64.7061 42.5636L64.7079 42.5532L61.7487 42.06ZM62.7387 36.45L59.7936 35.8786L59.7912 35.8911L59.7888 35.9037L62.7387 36.45ZM68.6787 8.50999L65.7609 7.81228L65.759 7.82029L65.7571 7.82831L68.6787 8.50999ZM84.6287 12.58L81.7344 11.7906L81.7316 11.801L81.7288 11.8114L84.6287 12.58ZM79.5687 33.26L82.4876 33.9526L82.4905 33.9406L82.4933 33.9285L79.5687 33.26ZM78.0287 39.75L80.9466 40.4468L80.9476 40.4426L78.0287 39.75ZM74.3987 56.14L71.4611 55.531L71.4576 55.5482L71.4542 55.5655L74.3987 56.14ZM72.0887 67.69L69.1572 67.0527L69.1497 67.087L69.143 67.1215L72.0887 67.69ZM70.8787 73.96L73.8204 74.5483L73.8224 74.5384L73.8243 74.5285L70.8787 73.96ZM67.6887 79.02L65.9755 76.5573L67.6887 79.02ZM54.4887 78.91L52.7546 81.3581L52.778 81.3746L52.8017 81.3908L54.4887 78.91ZM49.6487 72.97L52.2878 71.5434L52.2558 71.4842L52.2212 71.4265L49.6487 72.97ZM46.4587 66.37L43.7229 67.6011L43.7344 67.6267L43.7465 67.6521L46.4587 66.37ZM40.8487 64.94L43.6577 65.9934L43.6738 65.9503L43.6886 65.9068L40.8487 64.94ZM37.6587 72.86L34.9754 71.5184L34.9681 71.5329L34.961 71.5476L37.6587 72.86ZM26.4387 78C24.4355 78 22.7924 77.5351 21.411 76.685L18.2664 81.795C20.6983 83.2916 23.4552 84 26.4387 84V78ZM21.4804 76.7291C20.0731 75.8089 19.4614 74.8597 19.2358 73.9199L13.4015 75.3201C14.0559 78.0469 15.7909 80.1777 18.1969 81.7509L21.4804 76.7291ZM19.1647 73.6713C19.1782 73.7118 19.1409 73.5881 19.0302 73.1248C18.9339 72.7222 18.8044 72.1597 18.6405 71.4315C18.3133 69.9771 17.857 67.8967 17.2709 65.186L11.4064 66.454C11.9937 69.1699 12.4541 71.2696 12.7868 72.7485C13.0947 74.1168 13.338 75.1648 13.4726 75.5687L19.1647 73.6713ZM17.2804 65.2317C15.4294 55.9764 13.2424 47.2256 10.7171 38.9814L4.98022 40.7386C7.44163 48.7744 9.58131 57.3302 11.3969 66.4083L17.2804 65.2317ZM10.7232 39.0014C9.04485 33.3826 7.66339 28.4371 6.57618 24.1608L0.761166 25.6392C1.87396 30.0162 3.27917 35.0441 4.97417 40.7186L10.7232 39.0014ZM6.55923 24.0971L3.25922 12.2171L-2.52188 13.8229L0.778118 25.7029L6.55923 24.0971ZM3.26296 12.2306C3.0954 11.6162 3.03867 11.1535 3.03867 10.82H-2.96133C-2.96133 11.8065 -2.79805 12.8104 -2.52562 13.8093L3.26296 12.2306ZM3.03867 10.82C3.03867 9.45398 3.50317 8.56162 4.47867 7.82999L0.878674 3.02999C-1.66583 4.93837 -2.96133 7.63935 -2.96133 10.82H3.03867ZM4.54078 7.78214C5.68113 6.87936 7.19064 6.34 9.27867 6.34V0.339996C6.0867 0.339996 3.19621 1.19397 0.816563 3.07786L4.54078 7.78214ZM9.27867 6.34C10.5861 6.34 11.3409 6.63652 11.7946 6.96921L15.3428 2.13078C13.5964 0.850136 11.4912 0.339996 9.27867 0.339996V6.34ZM11.9787 7.09399C12.2729 7.27791 12.747 7.74808 13.0715 9.10011L18.9058 7.69988C18.3503 5.38525 17.2111 3.28875 15.1587 2.006L11.9787 7.09399ZM13.0671 9.08169C13.5848 11.3 14.0677 13.2694 14.5158 14.9873L20.3215 13.4727C19.8897 11.8172 19.4193 9.89997 18.9102 7.71831L13.0671 9.08169ZM14.5599 15.1396C15.0568 16.7014 15.4373 18.0547 15.7084 19.2071L21.5489 17.8329C21.2334 16.4919 20.8072 14.9853 20.2775 13.3204L14.5599 15.1396ZM15.7506 19.3665C17.5648 25.5347 19.0479 31.3614 20.203 36.848L26.0743 35.612C24.8827 29.952 23.3593 23.972 21.5068 17.6735L15.7506 19.3665ZM20.2133 36.8949C20.5654 38.4441 21.2152 41.7248 22.1705 46.7954L28.0668 45.6846C27.1155 40.6352 26.4453 37.2425 26.0641 35.5651L20.2133 36.8949ZM22.1823 46.8546C22.8444 50.0178 23.4703 52.9267 24.0601 55.5808L29.9172 54.2792C29.3337 51.6533 28.713 48.7689 28.055 45.6254L22.1823 46.8546ZM24.0601 55.5808C24.3576 56.9195 24.6253 58.0017 24.8621 58.7766C24.975 59.1462 25.1145 59.5592 25.2866 59.9235C25.3653 60.0903 25.5201 60.3982 25.7713 60.7101C25.8919 60.8598 26.7038 61.89 28.1987 61.89V55.89C28.9572 55.89 29.5223 56.1764 29.8409 56.3929C30.1533 56.605 30.3492 56.8287 30.4438 56.9461C30.6286 57.1755 30.7112 57.3597 30.712 57.3615C30.7282 57.3958 30.689 57.3138 30.6002 57.0233C30.4337 56.4783 30.2064 55.5805 29.9172 54.2792L24.0601 55.5808ZM28.1987 61.89C29.0267 61.89 29.6395 61.5658 29.9725 61.3398C30.3116 61.1097 30.5466 60.8572 30.6859 60.6918C30.963 60.3628 31.1626 60.0132 31.2934 59.7647C31.57 59.2393 31.8439 58.5695 32.1137 57.8371L26.4836 55.7629C26.2401 56.4238 26.0741 56.799 25.9839 56.9703C25.9314 57.0701 25.9661 56.9818 26.0964 56.827C26.1624 56.7487 26.3287 56.5614 26.6035 56.3749C26.8724 56.1925 27.4257 55.89 28.1987 55.89V61.89ZM32.0636 57.9642C32.6793 56.5018 33.1913 55.1273 33.5921 53.8448L27.8652 52.0552C27.5327 53.1193 27.0914 54.3115 26.5338 55.6358L32.0636 57.9642ZM33.5576 53.9485C33.9993 52.6971 34.3363 51.7241 34.5647 51.0387L28.8726 49.1413C28.6611 49.7759 28.3381 50.7095 27.8997 51.9515L33.5576 53.9485ZM34.6032 50.9142C34.8658 49.9951 35.6012 47.8161 36.8566 44.2715L31.2008 42.2685C29.9628 45.7639 29.1582 48.1315 28.8341 49.2658L34.6032 50.9142ZM36.8345 44.3317C37.8569 41.6298 38.6392 39.678 39.1901 38.4384L33.7072 36.0016C33.0848 37.402 32.2538 39.4835 31.2228 42.2083L36.8345 44.3317ZM39.1599 38.5043C39.6818 37.4023 40.3312 36.4801 41.1 35.7113L36.8574 31.4687C35.5728 32.7532 34.5355 34.251 33.7375 35.9357L39.1599 38.5043ZM41.1 35.7113C41.5577 35.2536 42.0386 35.05 42.7187 35.05V29.05C40.4654 29.05 38.453 29.873 36.8574 31.4687L41.1 35.7113ZM42.7187 35.05C43.7 35.05 44.5221 35.4114 45.3441 36.5529L50.2133 33.0471C48.3952 30.522 45.8441 29.05 42.7187 29.05V35.05ZM45.3441 36.5529C46.4103 38.0337 47.6538 40.6065 49.0187 44.4857L54.6786 42.4943C53.2569 38.4535 51.7871 35.2329 50.2133 33.0471L45.3441 36.5529ZM49.0216 44.4938C50.8235 49.5687 52.288 53.4353 53.4077 56.0543C53.9617 57.3502 54.4673 58.4261 54.917 59.2117C55.1342 59.5911 55.4039 60.0199 55.7247 60.392C55.884 60.5767 56.1335 60.8392 56.4749 61.0759C56.7919 61.2958 57.4418 61.67 58.3387 61.67V55.67C59.1439 55.67 59.691 56.0047 59.894 56.1455C60.1214 56.3031 60.2457 56.4471 60.2686 56.4737C60.3167 56.5294 60.269 56.4839 60.1241 56.2308C59.8497 55.7514 59.4523 54.9298 58.9246 53.6957C57.881 51.2547 56.4671 47.5313 54.6758 42.4862L49.0216 44.4938ZM58.3387 61.67C59.5273 61.67 60.2813 61.0134 60.5571 60.735C60.8693 60.4198 61.059 60.099 61.1553 59.9226C61.358 59.5516 61.4999 59.1556 61.5982 58.8524C61.8078 58.2056 62.0191 57.3406 62.2354 56.3249C62.6744 54.2635 63.2069 51.2289 63.8322 47.2565L57.9052 46.3235C57.2838 50.2711 56.7713 53.1765 56.367 55.0751C56.1616 56.0394 56.0017 56.6594 55.8904 57.0026C55.8283 57.1944 55.8223 57.1696 55.8898 57.0461C55.9186 56.9935 56.0438 56.7655 56.2947 56.5122C56.5092 56.2957 57.2051 55.67 58.3387 55.67V61.67ZM63.8104 47.3783C64.1093 45.8837 64.4073 44.2821 64.7043 42.574L58.793 41.546C58.5034 43.2113 58.2147 44.7629 57.9269 46.2017L63.8104 47.3783ZM64.7079 42.5532C64.9979 40.813 65.3247 38.9608 65.6885 36.9963L59.7888 35.9037C59.4193 37.8992 59.0861 39.787 58.7895 41.5668L64.7079 42.5532ZM65.6837 37.0214C67.584 27.2278 69.5563 17.9514 71.6002 9.19168L65.7571 7.82831C63.6944 16.6686 61.7067 26.0189 59.7936 35.8786L65.6837 37.0214ZM71.5964 9.20771C71.8571 8.11746 72.3072 7.54313 72.8242 7.1882C73.3962 6.7955 74.3788 6.45 76.0487 6.45V0.449997C73.6118 0.449997 71.3129 0.947823 69.4282 2.24179C67.4885 3.57353 66.3069 5.5292 65.7609 7.81228L71.5964 9.20771ZM76.0487 6.45C78.0826 6.45 79.5198 6.96301 80.5798 7.79251L84.2776 3.06748C81.9642 1.25699 79.148 0.449997 76.0487 0.449997V6.45ZM80.5798 7.79251C81.5762 8.57237 81.9587 9.4045 81.9587 10.49H87.9587C87.9587 7.46883 86.6544 4.92763 84.2776 3.06748L80.5798 7.79251ZM81.9587 10.49C81.9587 10.7236 81.9113 11.1418 81.7344 11.7906L87.523 13.3694C87.786 12.4048 87.9587 11.4297 87.9587 10.49H81.9587ZM81.7288 11.8114C80.1048 17.9384 78.4099 24.866 76.6441 32.5915L82.4933 33.9285C84.2474 26.254 85.9259 19.395 87.5285 13.3486L81.7288 11.8114ZM76.6497 32.5674L75.1097 39.0574L80.9476 40.4426L82.4876 33.9526L76.6497 32.5674ZM75.1107 39.0532C73.9291 44.0011 72.7127 49.4943 71.4611 55.531L77.3362 56.749C78.578 50.759 79.7816 45.3256 80.9466 40.4468L75.1107 39.0532ZM71.4542 55.5655C70.2791 61.5879 69.5156 65.4038 69.1572 67.0527L75.0202 68.3273C75.3951 66.6029 76.1716 62.7187 77.3431 56.7145L71.4542 55.5655ZM69.143 67.1215L67.933 73.3915L73.8243 74.5285L75.0343 68.2585L69.143 67.1215ZM67.9369 73.3717C67.6336 74.8881 66.9646 75.8692 65.9755 76.5573L69.4019 81.4827C71.7861 79.8241 73.2437 77.4319 73.8204 74.5483L67.9369 73.3717ZM65.9755 76.5573C64.9177 77.2931 63.4002 77.78 61.1987 77.78V83.78C64.2772 83.78 67.0863 83.0936 69.4019 81.4827L65.9755 76.5573ZM61.1987 77.78C59.0433 77.78 57.4227 77.2773 56.1756 76.4292L52.8017 81.3908C55.2213 83.0361 58.074 83.78 61.1987 83.78V77.78ZM56.2227 76.4619C54.9651 75.5711 53.6231 74.0137 52.2878 71.5434L47.0096 74.3966C48.6076 77.3529 50.4923 79.7556 52.7546 81.3581L56.2227 76.4619ZM52.2212 71.4265C52.2369 71.4527 52.1821 71.3562 52.0088 71.0096C51.8571 70.7062 51.6507 70.2845 51.3872 69.7395C50.8612 68.6511 50.123 67.102 49.1709 65.0879L43.7465 67.6521C44.701 69.6714 45.4478 71.2389 45.9851 72.3505C46.4815 73.3775 46.8774 74.1822 47.0762 74.5135L52.2212 71.4265ZM49.1944 65.1389C48.1988 62.9265 47.393 61.2169 46.7865 60.0429C46.4891 59.4673 46.2034 58.9494 45.9421 58.5475C45.8192 58.3584 45.638 58.095 45.4097 57.8459C45.2982 57.7244 45.0984 57.5203 44.8168 57.3261C44.5863 57.1672 43.9557 56.77 43.0487 56.77V62.77C42.1783 62.77 41.591 62.39 41.4104 62.2654C41.1786 62.1056 41.0352 61.9531 40.9867 61.9003C40.8845 61.7887 40.8556 61.7316 40.9115 61.8175C41.0077 61.9656 41.185 62.2727 41.4559 62.7971C41.986 63.8231 42.7385 65.4136 43.7229 67.6011L49.1944 65.1389ZM43.0487 56.77C41.6585 56.77 40.8442 57.6763 40.728 57.8005C40.4634 58.0831 40.2782 58.3742 40.1689 58.5577C39.9358 58.9489 39.7175 59.4196 39.5182 59.8878C39.1068 60.8546 38.6015 62.2319 38.0087 63.9732L43.6886 65.9068C44.2692 64.2014 44.7172 62.9937 45.0391 62.2372C45.1176 62.0528 45.1828 61.9089 45.2352 61.8002C45.2611 61.7465 45.2821 61.7052 45.298 61.6749C45.3059 61.66 45.3121 61.6487 45.3166 61.6406C45.3188 61.6366 45.3205 61.6337 45.3217 61.6316C45.3229 61.6295 45.3235 61.6285 45.3235 61.6285C45.3235 61.6285 45.3233 61.6288 45.323 61.6294C45.3226 61.63 45.3221 61.6308 45.3214 61.6319C45.32 61.6342 45.3178 61.6377 45.3148 61.6424C45.309 61.6514 45.2988 61.6668 45.2843 61.6873C45.2592 61.7226 45.2008 61.8021 45.1081 61.9011C45.0245 61.9903 44.8449 62.1695 44.5664 62.3417C44.2939 62.5103 43.7669 62.77 43.0487 62.77V56.77ZM38.0397 63.8866C36.486 68.0299 35.4781 70.5129 34.9754 71.5184L40.342 74.2016C41.0126 72.8604 42.1314 70.0635 43.6577 65.9934L38.0397 63.8866ZM34.961 71.5476C33.7927 73.949 32.4796 75.5445 31.112 76.5367C29.7795 77.5034 28.2579 78 26.4387 78V84C29.4595 84 32.2278 83.1399 34.6354 81.3933C37.0077 79.6721 38.8846 77.1977 40.3564 74.1724L34.961 71.5476ZM179.401 40.52L177.216 42.5761L177.247 42.6092L177.279 42.6413L179.401 40.52ZM179.401 51.3L181.522 53.4213H181.522L179.401 51.3ZM174.671 53.06V50.06H171.589L171.672 53.1402L174.671 53.06ZM175.221 73.63L172.222 73.7102L172.222 73.7237L175.221 73.63ZM173.131 79.24L175.194 81.4179L175.197 81.415L173.131 79.24ZM161.471 79.35L159.464 81.5799L159.495 81.6083L159.528 81.6358L161.471 79.35ZM159.161 74.07L156.162 74.1632L156.162 74.1699L159.161 74.07ZM158.501 52.84L161.499 52.7468L161.41 49.8853L158.548 49.8404L158.501 52.84ZM130.451 52.4L130.498 49.4004L127.682 49.3562L127.46 52.1635L130.451 52.4ZM128.581 76.05L125.59 75.8135L125.589 75.8199L128.581 76.05ZM114.391 80.12L112.458 82.4147L112.494 82.4453L112.532 82.4746L114.391 80.12ZM112.521 74.95L109.529 74.7188L109.528 74.7378L109.527 74.7569L112.521 74.95ZM114.281 52.18L117.272 52.4112L117.521 49.18H114.281V52.18ZM109.441 50.31L107.009 52.0665L107.064 52.1436L107.125 52.2171L109.441 50.31ZM109.661 39.75L111.849 41.8018L111.88 41.7688L111.91 41.7349L109.661 39.75ZM115.491 37.88V40.88H118.266L118.482 38.1126L115.491 37.88ZM117.801 8.17999L120.792 8.41262L120.792 8.40161L117.801 8.17999ZM132.101 3.67L129.871 5.67689V5.6769L132.101 3.67ZM133.861 9.39L136.851 9.6306L136.853 9.60388L136.855 9.57713L133.861 9.39ZM131.551 38.1L128.56 37.8594L128.303 41.0598L131.513 41.0998L131.551 38.1ZM158.061 38.43L158.023 41.4298L161.153 41.4687L161.059 38.3405L158.061 38.43ZM157.181 8.95L160.179 8.86049L160.179 8.85005L157.181 8.95ZM159.161 3.55999L157.094 1.38499L157.066 1.41148L157.039 1.43867L159.161 3.55999ZM171.041 3.55999L168.974 5.73499L169.004 5.76284L169.034 5.78988L171.041 3.55999ZM173.351 8.50999L176.349 8.42244L176.349 8.4107L176.348 8.39896L173.351 8.50999ZM174.231 38.65L171.232 38.7375L171.317 41.65H174.231V38.65ZM175.661 41.65C175.926 41.65 176.432 41.7434 177.216 42.5761L181.585 38.4639C180.022 36.8033 178.035 35.65 175.661 35.65V41.65ZM177.279 42.6413C177.676 43.0382 178.161 43.9212 178.161 45.91H184.161C184.161 43.0588 183.472 40.3484 181.522 38.3987L177.279 42.6413ZM178.161 45.91C178.161 47.8988 177.676 48.7818 177.279 49.1787L181.522 53.4213C183.472 51.4716 184.161 48.7612 184.161 45.91H178.161ZM177.279 49.1787C176.553 49.9046 175.999 50.06 175.551 50.06V56.06C177.889 56.06 179.901 55.042 181.522 53.4213L177.279 49.1787ZM175.551 50.06H174.671V56.06H175.551V50.06ZM171.672 53.1402L172.222 73.7102L178.219 73.5498L177.669 52.9798L171.672 53.1402ZM172.222 73.7237C172.273 75.367 171.809 76.3572 171.064 77.065L175.197 81.415C177.385 79.3361 178.314 76.5863 178.219 73.5363L172.222 73.7237ZM171.067 77.0621C170.383 77.7109 169.264 78.22 167.301 78.22V84.22C170.324 84.22 173.092 83.4091 175.194 81.4179L171.067 77.0621ZM167.301 78.22C165.404 78.22 164.21 77.7409 163.413 77.0642L159.528 81.6358C161.665 83.4524 164.357 84.22 167.301 84.22V78.22ZM163.477 77.1201C162.69 76.4115 162.208 75.4585 162.159 73.9701L156.162 74.1699C156.259 77.0815 157.318 79.6485 159.464 81.5799L163.477 77.1201ZM162.159 73.9768L161.499 52.7468L155.502 52.9332L156.162 74.1632L162.159 73.9768ZM158.548 49.8404L130.498 49.4004L130.404 55.3996L158.453 55.8396L158.548 49.8404ZM127.46 52.1635L125.59 75.8135L131.571 76.2865L133.441 52.6365L127.46 52.1635ZM125.589 75.8199C125.497 77.0167 125.101 77.5634 124.624 77.908C124.022 78.3429 122.838 78.77 120.661 78.77V84.77C123.47 84.77 126.099 84.2438 128.137 82.772C130.3 81.2099 131.37 78.8966 131.572 76.2801L125.589 75.8199ZM120.661 78.77C118.188 78.77 116.887 78.2683 116.249 77.7654L112.532 82.4746C114.681 84.1717 117.56 84.77 120.661 84.77V78.77ZM116.323 77.8253C115.84 77.4187 115.412 76.7308 115.514 75.1432L109.527 74.7569C109.336 77.7159 110.154 80.4746 112.458 82.4147L116.323 77.8253ZM115.512 75.1812L117.272 52.4112L111.289 51.9488L109.529 74.7188L115.512 75.1812ZM114.281 49.18H113.621V55.18H114.281V49.18ZM113.621 49.18C112.665 49.18 112.157 48.8898 111.756 48.4029L107.125 52.2171C108.777 54.2235 111.056 55.18 113.621 55.18V49.18ZM111.873 48.5535C111.409 47.9117 111.011 46.8057 111.011 44.92H105.011C105.011 47.581 105.565 50.0683 107.009 52.0665L111.873 48.5535ZM111.011 44.92C111.011 43.0932 111.452 42.2252 111.849 41.8018L107.472 37.6982C105.669 39.6215 105.011 42.2001 105.011 44.92H111.011ZM111.91 41.7349C112.378 41.2044 112.989 40.88 114.061 40.88V34.88C111.466 34.88 109.143 35.8023 107.411 37.7651L111.91 41.7349ZM114.061 40.88H115.491V34.88H114.061V40.88ZM118.482 38.1126L120.792 8.41262L114.81 7.94736L112.5 37.6474L118.482 38.1126ZM120.792 8.40161C120.878 7.24529 121.323 6.39629 122.218 5.67173L118.443 1.00826C116.258 2.77703 115.016 5.15471 114.809 7.95838L120.792 8.40161ZM122.218 5.67173C123.114 4.94688 124.381 4.46999 126.271 4.46999V-1.53001C123.32 -1.53001 120.628 -0.76022 118.443 1.00826L122.218 5.67173ZM126.271 4.46999C128.258 4.46999 129.279 5.01918 129.871 5.67689L134.33 1.66311C132.282 -0.612518 129.417 -1.53001 126.271 -1.53001V4.46999ZM129.871 5.6769C130.55 6.4314 130.973 7.49469 130.866 9.20286L136.855 9.57713C137.041 6.59197 136.291 3.84192 134.33 1.66311L129.871 5.6769ZM130.87 9.14939L128.56 37.8594L134.541 38.3406L136.851 9.6306L130.87 9.14939ZM131.513 41.0998L158.023 41.4298L158.098 35.4302L131.588 35.1002L131.513 41.0998ZM161.059 38.3405L160.179 8.86049L154.182 9.03951L155.062 38.5195L161.059 38.3405ZM160.179 8.85005C160.13 7.37249 160.548 6.41558 161.282 5.68131L157.039 1.43867C154.987 3.49108 154.085 6.1275 154.182 9.04994L160.179 8.85005ZM161.227 5.73499C161.997 5.00319 163.197 4.46999 165.211 4.46999V-1.53001C162.09 -1.53001 159.257 -0.669861 157.094 1.38499L161.227 5.73499ZM165.211 4.46999C167.022 4.46999 168.172 4.97238 168.974 5.73499L173.107 1.38499C170.976 -0.639053 168.239 -1.53001 165.211 -1.53001V4.46999ZM169.034 5.78988C169.894 6.56425 170.309 7.44852 170.353 8.62103L176.348 8.39896C176.245 5.61147 175.12 3.19574 173.047 1.33011L169.034 5.78988ZM170.352 8.59755L171.232 38.7375L177.229 38.5624L176.349 8.42244L170.352 8.59755ZM174.231 41.65H175.661V35.65H174.231V41.65ZM230.296 78.91L232.359 76.7321L230.296 78.91ZM228.206 73.52H231.206V73.503L231.206 73.4859L228.206 73.52ZM227.876 44.48L230.876 44.4459L230.842 41.48H227.876V44.48ZM222.046 40.3L219.897 42.3936L219.925 42.4215L219.953 42.4487L222.046 40.3ZM215.446 32.38L217.942 30.7159L217.936 30.7057L217.929 30.6955L215.446 32.38ZM210.606 23.91L213.278 22.5466V22.5466L210.606 23.91ZM205.656 12.91L202.847 13.9634L202.855 13.9844L202.863 14.0053L205.656 12.91ZM207.966 6.08999L206.037 3.79288L206.013 3.81234L205.991 3.83226L207.966 6.08999ZM218.856 5.21L216.964 7.53834L217.01 7.57506L217.056 7.61L218.856 5.21ZM222.046 9.5L219.343 10.8014L219.346 10.8081L222.046 9.5ZM230.296 25.45L227.705 26.9616L227.718 26.9834L227.731 27.0049L230.296 25.45ZM241.626 25.45L244.26 26.8866L244.272 26.8641L244.284 26.8414L241.626 25.45ZM250.206 9.05999L247.568 7.63115L247.558 7.64982L247.548 7.66864L250.206 9.05999ZM252.956 5.21L251.018 2.91984L250.973 2.9583L250.929 2.99854L252.956 5.21ZM264.066 5.87L262.332 8.31807L262.367 8.34261L262.402 8.36615L264.066 5.87ZM265.936 14.01L268.73 15.1032L268.741 15.0753L268.751 15.0471L265.936 14.01ZM261.536 23.25L258.862 21.8908L258.857 21.8996L258.853 21.9084L261.536 23.25ZM256.256 32.82L253.76 31.1559L253.75 31.1716L253.739 31.1874L256.256 32.82ZM249.436 40.74L251.466 42.949L251.469 42.9466L249.436 40.74ZM243.826 44.48V41.48H240.792L240.826 44.5145L243.826 44.48ZM244.156 73.19H247.156V73.1728L247.156 73.1555L244.156 73.19ZM242.066 78.91L239.945 76.7887L242.066 78.91ZM236.236 77.89C234.172 77.89 233.029 77.3665 232.359 76.7321L228.233 81.0879C230.35 83.0935 233.167 83.89 236.236 83.89V77.89ZM232.359 76.7321C231.674 76.0828 231.206 75.1343 231.206 73.52H225.206C225.206 76.4524 226.132 79.0972 228.233 81.0879L232.359 76.7321ZM231.206 73.4859L230.876 44.4459L224.876 44.5141L225.206 73.5541L231.206 73.4859ZM227.876 41.48C228.246 41.48 228.393 41.5893 228.208 41.5028C228.06 41.433 227.795 41.2821 227.397 40.9969C226.601 40.4265 225.523 39.4992 224.14 38.1513L219.953 42.4487C221.429 43.8875 222.753 45.0501 223.901 45.8731C224.474 46.2845 225.066 46.6561 225.66 46.9347C226.218 47.1965 226.993 47.48 227.876 47.48V41.48ZM224.195 38.2064C221.493 35.4335 219.423 32.9376 217.942 30.7159L212.95 34.0441C214.696 36.6624 217.026 39.4465 219.897 42.3936L224.195 38.2064ZM217.929 30.6955C216.635 28.7885 215.085 26.0883 213.278 22.5466L207.934 25.2734C209.794 28.9183 211.471 31.8648 212.964 34.0645L217.929 30.6955ZM213.278 22.5466C211.49 19.0402 209.88 15.4631 208.449 11.8147L202.863 14.0053C204.366 17.8369 206.056 21.5931 207.934 25.2734L213.278 22.5466ZM208.465 11.8566C208.363 11.5837 208.326 11.3531 208.326 11.15H202.326C202.326 12.1202 202.51 13.0629 202.847 13.9634L208.465 11.8566ZM208.326 11.15C208.326 10.4082 208.64 9.4864 209.942 8.34772L205.991 3.83226C203.772 5.77359 202.326 8.22511 202.326 11.15H208.326ZM209.896 8.38711C211.165 7.32111 212.637 6.78 214.456 6.78V0.779999C211.289 0.779999 208.434 1.77888 206.037 3.79288L209.896 8.38711ZM214.456 6.78C215.646 6.78 216.411 7.08882 216.964 7.53834L220.748 2.88166C218.955 1.42451 216.787 0.779999 214.456 0.779999V6.78ZM217.056 7.61C217.701 8.09337 218.503 9.05643 219.343 10.8014L224.749 8.19855C223.683 5.98357 222.358 4.08662 220.656 2.81L217.056 7.61ZM219.346 10.8081C222.802 17.9393 225.592 23.3395 227.705 26.9616L232.888 23.9384C230.894 20.5205 228.184 15.2874 224.746 8.19186L219.346 10.8081ZM227.731 27.0049C229.222 29.4657 230.536 31.4216 231.659 32.7947C232.216 33.4746 232.801 34.1059 233.406 34.5933C233.908 34.9968 234.91 35.71 236.236 35.71V29.71C237.049 29.71 237.419 30.1207 237.168 29.9192C237.022 29.8016 236.737 29.5254 236.303 28.9953C235.446 27.9484 234.304 26.2743 232.862 23.8951L227.731 27.0049ZM236.236 35.71C237.63 35.71 238.639 34.9067 239.091 34.5084C239.661 34.0066 240.202 33.3641 240.707 32.6833C241.73 31.3053 242.918 29.3464 244.26 26.8866L238.992 24.0134C237.694 26.3936 236.664 28.0647 235.89 29.1067C235.497 29.6359 235.245 29.9009 235.127 30.0041C234.893 30.2108 235.319 29.71 236.236 29.71V35.71ZM244.284 26.8414L252.864 10.4514L247.548 7.66864L238.968 24.0586L244.284 26.8414ZM252.844 10.4888C253.731 8.85161 254.46 7.90152 254.983 7.42146L250.929 2.99854C249.693 4.13181 248.588 5.74839 247.568 7.63115L252.844 10.4888ZM254.894 7.50016C255.067 7.35358 255.694 7 257.356 7V0.999996C255.059 0.999996 252.752 1.45308 251.018 2.91984L254.894 7.50016ZM257.356 7C259.61 7 261.196 7.51363 262.332 8.31807L265.8 3.42192C263.416 1.73302 260.529 0.999996 257.356 0.999996V7ZM262.402 8.36615C263.322 8.97946 263.706 9.68985 263.706 10.82H269.706C269.706 7.69681 268.33 5.10719 265.73 3.37384L262.402 8.36615ZM263.706 10.82C263.706 10.9958 263.611 11.6427 263.121 12.9729L268.751 15.0471C269.288 13.5906 269.706 12.1108 269.706 10.82H263.706ZM263.142 12.9168C262.543 14.4478 261.142 17.4035 258.862 21.8908L264.211 24.6091C266.477 20.1498 268.009 16.9456 268.73 15.1032L263.142 12.9168ZM258.853 21.9084C256.663 26.2882 254.971 29.3391 253.76 31.1559L258.752 34.4841C260.181 32.3409 262.009 29.0118 264.219 24.5916L258.853 21.9084ZM253.739 31.1874C252.137 33.6575 250.036 36.1087 247.404 38.5334L251.469 42.9466C254.409 40.2379 256.855 37.4092 258.773 34.4526L253.739 31.1874ZM247.406 38.531C246.102 39.73 245.085 40.5485 244.335 41.0488C243.96 41.2984 243.71 41.4297 243.568 41.4906C243.4 41.5629 243.516 41.48 243.826 41.48V47.48C245.313 47.48 246.698 46.6846 247.663 46.0411C248.782 45.2949 250.057 44.2434 251.466 42.949L247.406 38.531ZM240.826 44.5145L241.156 73.2245L247.156 73.1555L246.826 44.4455L240.826 44.5145ZM241.156 73.19C241.156 75.0072 240.652 76.081 239.945 76.7887L244.188 81.0313C246.267 78.9523 247.156 76.2128 247.156 73.19H241.156ZM239.945 76.7887C239.371 77.3621 238.312 77.89 236.236 77.89V83.89C239.294 83.89 242.121 83.0979 244.188 81.0313L239.945 76.7887ZM306.116 3.00999L303.995 5.13132L304.016 5.15211L304.037 5.17249L306.116 3.00999ZM307.216 19.18L309.958 20.3984L309.964 20.3846L309.97 20.3707L307.216 19.18ZM301.056 26.99L303.032 29.2477L301.056 26.99ZM294.676 27.43L292.756 29.7347L292.801 29.7722L292.847 29.8079L294.676 27.43ZM294.566 21.49L296.925 23.3435L296.997 23.2515L297.062 23.1541L294.566 21.49ZM295.556 20.28L293.314 18.2869L293.306 18.2957L293.299 18.3045L295.556 20.28ZM297.756 17.53L300.156 19.33L303.335 15.0911L298.065 14.5459L297.756 17.53ZM292.036 15.11L290.068 17.3738L290.096 17.3987L290.126 17.4229L292.036 15.11ZM292.036 2.56999L290.013 0.354534L290.013 0.354538L292.036 2.56999ZM296.546 10.82L294.146 12.62L294.214 12.7104L294.289 12.7955L296.546 10.82ZM301.166 10.82L298.909 8.84449L298.834 8.92956L298.766 9.01999L301.166 10.82ZM296.656 6.86L298.778 8.98132V8.98132L296.656 6.86ZM298.746 3.26C301.191 3.26 302.828 3.96478 303.995 5.13132L308.238 0.888672C305.737 -1.61145 302.461 -2.74 298.746 -2.74V3.26ZM304.037 5.17249C305.23 6.31955 305.976 7.99715 305.976 10.6H311.976C311.976 6.74951 310.816 3.36711 308.196 0.847496L304.037 5.17249ZM305.976 10.6C305.976 13.2043 305.471 15.6584 304.463 17.9893L309.97 20.3707C311.309 17.2749 311.976 14.009 311.976 10.6H305.976ZM304.475 17.9616C303.529 20.0903 301.795 22.3575 299.081 24.7323L303.032 29.2477C306.184 26.4892 308.557 23.5497 309.958 20.3984L304.475 17.9616ZM299.081 24.7323C298.636 25.1212 298.3 25.3344 298.074 25.4433C297.855 25.5494 297.797 25.53 297.866 25.53V31.53C299.885 31.53 301.637 30.4685 303.032 29.2477L299.081 24.7323ZM297.866 25.53C297.372 25.53 296.948 25.393 296.505 25.0521L292.847 29.8079C294.311 30.9337 296.014 31.53 297.866 31.53V25.53ZM296.597 25.1253C296.445 24.9991 296.402 24.9184 296.391 24.8943C296.381 24.8735 296.356 24.818 296.356 24.68H290.356C290.356 26.7118 291.224 28.4585 292.756 29.7347L296.597 25.1253ZM296.356 24.68C296.356 24.3719 296.453 23.9441 296.925 23.3435L292.207 19.6365C291.066 21.0892 290.356 22.7881 290.356 24.68H296.356ZM297.062 23.1541C297.052 23.17 297.095 23.1058 297.246 22.9222C297.382 22.7553 297.57 22.5348 297.814 22.2555L293.299 18.3045C292.805 18.8681 292.343 19.4158 292.07 19.8259L297.062 23.1541ZM297.798 22.2731C298.464 21.5239 299.254 20.5327 300.156 19.33L295.356 15.73C294.498 16.874 293.821 17.7161 293.314 18.2869L297.798 22.2731ZM298.065 14.5459C296.541 14.3883 295.189 13.823 293.947 12.7971L290.126 17.4229C292.257 19.1837 294.718 20.2317 297.448 20.5141L298.065 14.5459ZM294.005 12.8462C293.194 12.1411 292.506 10.8444 292.506 8.29H286.506C286.506 11.8956 287.505 15.1456 290.068 17.3738L294.005 12.8462ZM292.506 8.29C292.506 6.86413 292.992 5.76009 294.059 4.78545L290.013 0.354538C287.708 2.4599 286.506 5.1692 286.506 8.29H292.506ZM294.059 4.78545C295.077 3.85581 296.535 3.26 298.746 3.26V-2.74C295.384 -2.74 292.369 -1.79582 290.013 0.354534L294.059 4.78545ZM292.886 8.73C292.886 10.1173 293.278 11.4618 294.146 12.62L298.946 9.02C298.935 9.00488 298.886 8.95606 298.886 8.73H292.886ZM294.289 12.7955C295.539 14.2241 297.255 14.7 298.856 14.7V8.69999C298.621 8.69999 298.548 8.66568 298.577 8.67653C298.593 8.68273 298.629 8.69889 298.676 8.7308C298.723 8.76316 298.767 8.80245 298.804 8.84448L294.289 12.7955ZM298.856 14.7C300.411 14.7 302.319 14.2826 303.566 12.62L298.766 9.01999C298.839 8.9226 298.924 8.8411 299.01 8.77879C299.094 8.7179 299.16 8.68815 299.191 8.67653C299.219 8.66562 299.212 8.67223 299.154 8.68124C299.097 8.69028 299 8.69999 298.856 8.69999V14.7ZM303.424 12.7955C304.434 11.6415 304.936 10.2356 304.936 8.73H298.936C298.936 8.77216 298.933 8.79765 298.931 8.80948C298.929 8.82092 298.928 8.8235 298.929 8.82038C298.93 8.81716 298.931 8.81503 298.931 8.81589C298.93 8.81698 298.924 8.82659 298.909 8.84449L303.424 12.7955ZM304.936 8.73C304.936 7.22517 304.479 5.58625 303.098 4.39527C301.801 3.27773 300.172 2.98 298.746 2.98V8.98C299.072 8.98 299.247 9.0162 299.313 9.03519C299.371 9.05165 299.297 9.04036 299.18 8.93972C299.123 8.89094 299.07 8.83246 299.025 8.76799C298.981 8.70408 298.954 8.64773 298.939 8.60881C298.91 8.53474 298.936 8.55478 298.936 8.73H304.936ZM298.746 2.98C297.119 2.98 295.666 3.60735 294.535 4.73868L298.778 8.98132C298.802 8.95651 298.815 8.94823 298.813 8.94918C298.813 8.94953 298.81 8.9516 298.804 8.95467C298.799 8.95776 298.791 8.96132 298.783 8.9649C298.774 8.96849 298.766 8.97163 298.757 8.97421C298.749 8.97678 298.742 8.97845 298.736 8.97947C298.725 8.98164 298.727 8.98 298.746 8.98V2.98ZM294.535 4.73867C293.453 5.82101 292.886 7.2101 292.886 8.73H298.886C298.886 8.72053 298.886 8.77335 298.853 8.85474C298.837 8.89191 298.82 8.92366 298.803 8.94817C298.787 8.97224 298.776 8.98289 298.778 8.98132L294.535 4.73867ZM347.242 77.7L345.812 80.3371L345.839 80.3515L345.865 80.3653L347.242 77.7ZM337.013 68.57L334.48 70.1775L334.498 70.206L334.516 70.2341L337.013 68.57ZM335.473 50.31L333.53 48.0242L333.501 48.0489L333.472 48.0743L335.473 50.31ZM349.443 55.15L346.446 55.2974L346.447 55.3118L346.448 55.3262L349.443 55.15ZM353.513 63.84L351.605 66.1558L351.626 66.1727L351.647 66.1893L353.513 63.84ZM369.573 64.94L368.093 62.3299L369.573 64.94ZM370.783 54.71L368.719 56.8879L368.75 56.9172L368.782 56.9457L370.783 54.71ZM365.832 51.74L364.718 54.5254L364.784 54.5518L364.851 54.575L365.832 51.74ZM358.133 49.21L358.965 46.3279L358.948 46.3228L358.93 46.318L358.133 49.21ZM346.802 45.36L345.636 48.1237L346.802 45.36ZM337.453 38.65L335.23 40.6654L335.255 40.6925L335.28 40.719L337.453 38.65ZM336.793 14.45L334.328 12.7398L334.316 12.7569L334.304 12.7742L336.793 14.45ZM346.802 6.08999L348.087 8.80121L348.106 8.79207L348.125 8.78266L346.802 6.08999ZM374.633 6.31L373.235 8.96475L373.263 8.97931L373.291 8.99328L374.633 6.31ZM384.642 14.89L382.154 16.5658L382.154 16.5658L384.642 14.89ZM375.182 31.83L373.061 33.9513L373.095 33.9855L373.131 34.0186L375.182 31.83ZM368.473 19.95L366.434 22.1513L366.454 22.1697L366.474 22.1878L368.473 19.95ZM352.413 19.84L354.238 22.2208L354.262 22.202L354.287 22.1826L352.413 19.84ZM351.533 31.28L350.006 33.8628L350.031 33.8775L350.056 33.8917L351.533 31.28ZM361.103 34.8L362.051 31.9539L362.004 31.9382L361.956 31.9241L361.103 34.8ZM362.642 35.35L361.589 38.159L361.749 38.219L361.915 38.2604L362.642 35.35ZM364.513 35.9L363.564 38.746L363.595 38.7565L363.627 38.7662L364.513 35.9ZM375.622 40.19L376.917 37.4836L375.622 40.19ZM384.753 47.34L387.027 45.3833L384.753 47.34ZM385.193 70.55L382.755 68.8013L382.748 68.8114L385.193 70.55ZM375.513 78.36L376.754 81.0911L376.765 81.0861L376.776 81.081L375.513 78.36ZM362.092 78.11C357.018 78.11 352.549 77.0647 348.62 75.0347L345.865 80.3653C350.736 82.882 356.167 84.11 362.092 84.11V78.11ZM348.673 75.0629C344.734 72.9264 341.706 70.202 339.509 66.9059L334.516 70.2341C337.306 74.418 341.098 77.7802 345.812 80.3371L348.673 75.0629ZM339.546 66.9625C337.416 63.6077 336.383 60.0917 336.383 56.36H330.383C330.383 61.2816 331.769 65.9056 334.48 70.1775L339.546 66.9625ZM336.383 56.36C336.383 54.0047 336.974 52.9922 337.473 52.5457L333.472 48.0743C331.184 50.1211 330.383 53.1419 330.383 56.36H336.383ZM337.415 52.5958C338.245 51.8909 339.386 51.44 341.082 51.44V45.44C338.233 45.44 335.634 46.2358 333.53 48.0242L337.415 52.5958ZM341.082 51.44C343.402 51.44 344.657 51.9334 345.31 52.4571C345.871 52.9074 346.367 53.6841 346.446 55.2974L352.439 55.0026C352.298 52.1426 351.291 49.5643 349.065 47.7779C346.931 46.0649 344.116 45.44 341.082 45.44V51.44ZM346.448 55.3262C346.708 59.7537 348.363 63.4854 351.605 66.1558L355.42 61.5242C353.676 60.0879 352.617 58.0263 352.437 54.9738L346.448 55.3262ZM351.647 66.1893C354.678 68.5968 358.198 69.81 362.092 69.81V63.81C359.533 63.81 357.333 63.0432 355.378 61.4907L351.647 66.1893ZM362.092 69.81C365.343 69.81 368.356 69.0778 371.052 67.5501L368.093 62.3299C366.389 63.2955 364.415 63.81 362.092 63.81V69.81ZM371.052 67.5501C374.139 65.8003 375.872 62.999 375.872 59.44H369.872C369.872 60.721 369.406 61.5864 368.093 62.3299L371.052 67.5501ZM375.872 59.44C375.872 56.6991 374.827 54.3028 372.783 52.4743L368.782 56.9457C369.525 57.6105 369.872 58.3675 369.872 59.44H375.872ZM372.846 52.5321C371.127 50.9037 369.103 49.6973 366.814 48.905L364.851 54.575C366.376 55.1027 367.652 55.8763 368.719 56.8879L372.846 52.5321ZM366.947 48.9546C364.978 48.1671 362.302 47.2918 358.965 46.3279L357.3 52.0921C360.563 53.0348 363.02 53.8462 364.718 54.5254L366.947 48.9546ZM358.93 46.318C354.775 45.1718 351.126 43.9288 347.969 42.5963L345.636 48.1237C349.079 49.5778 352.983 50.9016 357.335 52.102L358.93 46.318ZM347.969 42.5963C345.113 41.3902 342.327 39.4179 339.625 36.581L335.28 40.719C338.445 44.0421 341.892 46.5432 345.636 48.1237L347.969 42.5963ZM339.675 36.6346C337.392 34.1177 336.163 30.8408 336.163 26.55H330.163C330.163 32.0858 331.793 36.8757 335.23 40.6654L339.675 36.6346ZM336.163 26.55C336.163 22.6531 337.206 19.2071 339.281 16.1258L334.304 12.7742C331.539 16.8796 330.163 21.5002 330.163 26.55H336.163ZM339.257 16.1602C341.434 13.0231 344.353 10.57 348.087 8.80121L345.518 3.37878C340.892 5.57003 337.138 8.69022 334.328 12.7398L339.257 16.1602ZM348.125 8.78266C351.865 6.94565 355.991 6.00999 360.552 6.00999V0.00999451C355.14 0.00999451 350.1 1.12767 345.48 3.39733L348.125 8.78266ZM360.552 6.00999C365.323 6.00999 369.529 7.01401 373.235 8.96475L376.03 3.65524C371.376 1.20598 366.195 0.00999451 360.552 0.00999451V6.00999ZM373.291 8.99328C377.128 10.9118 380.051 13.4426 382.154 16.5658L387.131 13.2142C384.394 9.15075 380.644 5.96155 375.974 3.62672L373.291 8.99328ZM382.154 16.5658C384.273 19.7125 385.272 22.9131 385.272 26.22H391.272C391.272 21.6069 389.852 17.2541 387.131 13.2142L382.154 16.5658ZM385.272 26.22C385.272 28.1072 384.77 28.991 384.265 29.4535C383.711 29.9613 382.592 30.48 380.353 30.48V36.48C383.393 36.48 386.234 35.7887 388.32 33.8765C390.455 31.919 391.272 29.1728 391.272 26.22H385.272ZM380.353 30.48C378.526 30.48 377.658 30.0383 377.234 29.6414L373.131 34.0186C375.054 35.8217 377.633 36.48 380.353 36.48V30.48ZM377.304 29.7087C376.749 29.1542 376.046 27.9532 375.443 25.6723L369.642 27.2077C370.359 29.9134 371.416 32.3058 373.061 33.9513L377.304 29.7087ZM375.443 25.6723C374.622 22.5724 372.931 19.9091 370.471 17.7122L366.474 22.1878C368.121 23.6576 369.143 25.3209 369.642 27.2077L375.443 25.6723ZM370.511 17.7487C367.859 15.293 364.431 14.2 360.552 14.2V20.2C363.274 20.2 365.126 20.9403 366.434 22.1513L370.511 17.7487ZM360.552 14.2C356.749 14.2 353.346 15.2511 350.538 17.4974L354.287 22.1826C355.879 20.9089 357.903 20.2 360.552 20.2V14.2ZM350.587 17.4592C347.598 19.7509 346.112 22.9666 346.112 26.77H352.112C352.112 24.7067 352.827 23.3025 354.238 22.2208L350.587 17.4592ZM346.112 26.77C346.112 29.7616 347.379 32.31 350.006 33.8628L353.059 28.6972C352.46 28.3433 352.112 27.8851 352.112 26.77H346.112ZM350.056 33.8917C352.075 35.0324 355.569 36.2866 360.249 37.6759L361.956 31.9241C357.25 30.5267 354.364 29.4343 353.009 28.6683L350.056 33.8917ZM360.154 37.646C360.549 37.7778 361.026 37.9478 361.589 38.159L363.696 32.541C363.086 32.3122 362.536 32.1156 362.051 31.9539L360.154 37.646ZM361.915 38.2604C362.417 38.386 362.966 38.5468 363.564 38.746L365.461 33.0539C364.739 32.8132 364.041 32.6074 363.37 32.4396L361.915 38.2604ZM363.627 38.7662C367.538 39.9751 371.102 41.3537 374.328 42.8964L376.917 37.4836C373.396 35.7996 369.554 34.3183 365.398 33.0338L363.627 38.7662ZM374.328 42.8964C377.286 44.3112 380.006 46.4229 382.478 49.2967L387.027 45.3833C384.073 41.9505 380.705 39.2955 376.917 37.4836L374.328 42.8964ZM382.478 49.2967C384.663 51.8356 385.823 55.0366 385.823 59.11H391.823C391.823 53.7968 390.269 49.151 387.027 45.3833L382.478 49.2967ZM385.823 59.11C385.823 62.7524 384.8 65.9509 382.755 68.8013L387.63 72.2987C390.425 68.4024 391.823 63.9743 391.823 59.11H385.823ZM382.748 68.8114C380.737 71.6385 377.94 73.9252 374.249 75.639L376.776 81.081C381.298 78.9815 384.954 76.0615 387.637 72.2886L382.748 68.8114ZM374.271 75.6289C370.668 77.2666 366.625 78.11 362.092 78.11V84.11C367.387 84.11 372.29 83.1201 376.754 81.0911L374.271 75.6289Z" fill="#186F65" mask="url(#path-1-outside-1_640_177)"/>
</svg>
